G04 #@! TF.GenerationSoftware,KiCad,Pcbnew,(5.1.4)-1*
G04 #@! TF.CreationDate,2022-12-24T01:49:45-08:00*
G04 #@! TF.ProjectId,SMD-Solder-Practice-Board,534d442d-536f-46c6-9465-722d50726163,rev?*
G04 #@! TF.SameCoordinates,Original*
G04 #@! TF.FileFunction,Legend,Top*
G04 #@! TF.FilePolarity,Positive*
%FSLAX46Y46*%
G04 Gerber Fmt 4.6, Leading zero omitted, Abs format (unit mm)*
G04 Created by KiCad (PCBNEW (5.1.4)-1) date 2022-12-24 01:49:45*
%MOMM*%
%LPD*%
G04 APERTURE LIST*
%ADD10C,0.120000*%
%ADD11C,0.150000*%
G04 APERTURE END LIST*
D10*
X123480000Y-52340000D02*
X127380000Y-52340000D01*
X123480000Y-54340000D02*
X127380000Y-54340000D01*
X123480000Y-52340000D02*
X123480000Y-54340000D01*
X141260000Y-81550000D02*
X145160000Y-81550000D01*
X141260000Y-83550000D02*
X145160000Y-83550000D01*
X141260000Y-81550000D02*
X141260000Y-83550000D01*
X123480000Y-96790000D02*
X127380000Y-96790000D01*
X123480000Y-98790000D02*
X127380000Y-98790000D01*
X123480000Y-96790000D02*
X123480000Y-98790000D01*
X141260000Y-96790000D02*
X145160000Y-96790000D01*
X141260000Y-98790000D02*
X145160000Y-98790000D01*
X141260000Y-96790000D02*
X141260000Y-98790000D01*
X141260000Y-110760000D02*
X145160000Y-110760000D01*
X141260000Y-112760000D02*
X145160000Y-112760000D01*
X141260000Y-110760000D02*
X141260000Y-112760000D01*
X141260000Y-52340000D02*
X145160000Y-52340000D01*
X141260000Y-54340000D02*
X145160000Y-54340000D01*
X141260000Y-52340000D02*
X141260000Y-54340000D01*
X141260000Y-66310000D02*
X145160000Y-66310000D01*
X141260000Y-68310000D02*
X145160000Y-68310000D01*
X141260000Y-66310000D02*
X141260000Y-68310000D01*
X123480000Y-81550000D02*
X127380000Y-81550000D01*
X123480000Y-83550000D02*
X127380000Y-83550000D01*
X123480000Y-81550000D02*
X123480000Y-83550000D01*
X123480000Y-110760000D02*
X127380000Y-110760000D01*
X123480000Y-112760000D02*
X127380000Y-112760000D01*
X123480000Y-110760000D02*
X123480000Y-112760000D01*
X123480000Y-66310000D02*
X127380000Y-66310000D01*
X123480000Y-68310000D02*
X127380000Y-68310000D01*
X123480000Y-66310000D02*
X123480000Y-68310000D01*
X123480000Y-124730000D02*
X127380000Y-124730000D01*
X123480000Y-126730000D02*
X127380000Y-126730000D01*
X123480000Y-124730000D02*
X123480000Y-126730000D01*
X141260000Y-124730000D02*
X145160000Y-124730000D01*
X141260000Y-126730000D02*
X145160000Y-126730000D01*
X141260000Y-124730000D02*
X141260000Y-126730000D01*
X67850000Y-111378000D02*
X71850000Y-111378000D01*
X67850000Y-108078000D02*
X67850000Y-111378000D01*
X68358000Y-124840000D02*
X72358000Y-124840000D01*
X68358000Y-121540000D02*
X68358000Y-124840000D01*
D11*
X67469000Y-53312000D02*
X66194000Y-53312000D01*
X77819000Y-52737000D02*
X77144000Y-52737000D01*
X77819000Y-63087000D02*
X77144000Y-63087000D01*
X67469000Y-63087000D02*
X68144000Y-63087000D01*
X67469000Y-52737000D02*
X68144000Y-52737000D01*
X67469000Y-63087000D02*
X67469000Y-62412000D01*
X77819000Y-63087000D02*
X77819000Y-62412000D01*
X77819000Y-52737000D02*
X77819000Y-53412000D01*
X67469000Y-52737000D02*
X67469000Y-53312000D01*
X67215000Y-86840000D02*
X65940000Y-86840000D01*
X77565000Y-86265000D02*
X76890000Y-86265000D01*
X77565000Y-96615000D02*
X76890000Y-96615000D01*
X67215000Y-96615000D02*
X67890000Y-96615000D01*
X67215000Y-86265000D02*
X67890000Y-86265000D01*
X67215000Y-96615000D02*
X67215000Y-95940000D01*
X77565000Y-96615000D02*
X77565000Y-95940000D01*
X77565000Y-86265000D02*
X77565000Y-86940000D01*
X67215000Y-86265000D02*
X67215000Y-86840000D01*
D10*
X109293922Y-68274000D02*
X109811078Y-68274000D01*
X109293922Y-66854000D02*
X109811078Y-66854000D01*
X93721422Y-112724000D02*
X94238578Y-112724000D01*
X93721422Y-111304000D02*
X94238578Y-111304000D01*
X108961422Y-112470000D02*
X109478578Y-112470000D01*
X108961422Y-111050000D02*
X109478578Y-111050000D01*
X93975422Y-83260000D02*
X94492578Y-83260000D01*
X93975422Y-81840000D02*
X94492578Y-81840000D01*
X94229422Y-54812000D02*
X94746578Y-54812000D01*
X94229422Y-53392000D02*
X94746578Y-53392000D01*
X93975422Y-98246000D02*
X94492578Y-98246000D01*
X93975422Y-96826000D02*
X94492578Y-96826000D01*
X108961422Y-126440000D02*
X109478578Y-126440000D01*
X108961422Y-125020000D02*
X109478578Y-125020000D01*
X109469422Y-54558000D02*
X109986578Y-54558000D01*
X109469422Y-53138000D02*
X109986578Y-53138000D01*
X94229422Y-68274000D02*
X94746578Y-68274000D01*
X94229422Y-66854000D02*
X94746578Y-66854000D01*
X108961422Y-83260000D02*
X109478578Y-83260000D01*
X108961422Y-81840000D02*
X109478578Y-81840000D01*
X93721422Y-126440000D02*
X94238578Y-126440000D01*
X93721422Y-125020000D02*
X94238578Y-125020000D01*
X108961422Y-98246000D02*
X109478578Y-98246000D01*
X108961422Y-96826000D02*
X109478578Y-96826000D01*
X66904000Y-137506000D02*
X66904000Y-139306000D01*
X66904000Y-143016000D02*
X66904000Y-141556000D01*
X75844000Y-143016000D02*
X75844000Y-141556000D01*
X75844000Y-137506000D02*
X75844000Y-139306000D01*
X75844000Y-143016000D02*
X66904000Y-143016000D01*
X138278000Y-137506000D02*
X138278000Y-139306000D01*
X138278000Y-143016000D02*
X138278000Y-141556000D01*
X147218000Y-143016000D02*
X147218000Y-141556000D01*
X147218000Y-137506000D02*
X147218000Y-139306000D01*
X147218000Y-143016000D02*
X138278000Y-143016000D01*
D11*
X124515714Y-51792380D02*
X124515714Y-50792380D01*
X124753809Y-50792380D01*
X124896666Y-50840000D01*
X124991904Y-50935238D01*
X125039523Y-51030476D01*
X125087142Y-51220952D01*
X125087142Y-51363809D01*
X125039523Y-51554285D01*
X124991904Y-51649523D01*
X124896666Y-51744761D01*
X124753809Y-51792380D01*
X124515714Y-51792380D01*
X126039523Y-51792380D02*
X125468095Y-51792380D01*
X125753809Y-51792380D02*
X125753809Y-50792380D01*
X125658571Y-50935238D01*
X125563333Y-51030476D01*
X125468095Y-51078095D01*
X126420476Y-50887619D02*
X126468095Y-50840000D01*
X126563333Y-50792380D01*
X126801428Y-50792380D01*
X126896666Y-50840000D01*
X126944285Y-50887619D01*
X126991904Y-50982857D01*
X126991904Y-51078095D01*
X126944285Y-51220952D01*
X126372857Y-51792380D01*
X126991904Y-51792380D01*
X142295714Y-81002380D02*
X142295714Y-80002380D01*
X142533809Y-80002380D01*
X142676666Y-80050000D01*
X142771904Y-80145238D01*
X142819523Y-80240476D01*
X142867142Y-80430952D01*
X142867142Y-80573809D01*
X142819523Y-80764285D01*
X142771904Y-80859523D01*
X142676666Y-80954761D01*
X142533809Y-81002380D01*
X142295714Y-81002380D01*
X143819523Y-81002380D02*
X143248095Y-81002380D01*
X143533809Y-81002380D02*
X143533809Y-80002380D01*
X143438571Y-80145238D01*
X143343333Y-80240476D01*
X143248095Y-80288095D01*
X144771904Y-81002380D02*
X144200476Y-81002380D01*
X144486190Y-81002380D02*
X144486190Y-80002380D01*
X144390952Y-80145238D01*
X144295714Y-80240476D01*
X144200476Y-80288095D01*
X124515714Y-96242380D02*
X124515714Y-95242380D01*
X124753809Y-95242380D01*
X124896666Y-95290000D01*
X124991904Y-95385238D01*
X125039523Y-95480476D01*
X125087142Y-95670952D01*
X125087142Y-95813809D01*
X125039523Y-96004285D01*
X124991904Y-96099523D01*
X124896666Y-96194761D01*
X124753809Y-96242380D01*
X124515714Y-96242380D01*
X126039523Y-96242380D02*
X125468095Y-96242380D01*
X125753809Y-96242380D02*
X125753809Y-95242380D01*
X125658571Y-95385238D01*
X125563333Y-95480476D01*
X125468095Y-95528095D01*
X126658571Y-95242380D02*
X126753809Y-95242380D01*
X126849047Y-95290000D01*
X126896666Y-95337619D01*
X126944285Y-95432857D01*
X126991904Y-95623333D01*
X126991904Y-95861428D01*
X126944285Y-96051904D01*
X126896666Y-96147142D01*
X126849047Y-96194761D01*
X126753809Y-96242380D01*
X126658571Y-96242380D01*
X126563333Y-96194761D01*
X126515714Y-96147142D01*
X126468095Y-96051904D01*
X126420476Y-95861428D01*
X126420476Y-95623333D01*
X126468095Y-95432857D01*
X126515714Y-95337619D01*
X126563333Y-95290000D01*
X126658571Y-95242380D01*
X142771904Y-96242380D02*
X142771904Y-95242380D01*
X143010000Y-95242380D01*
X143152857Y-95290000D01*
X143248095Y-95385238D01*
X143295714Y-95480476D01*
X143343333Y-95670952D01*
X143343333Y-95813809D01*
X143295714Y-96004285D01*
X143248095Y-96099523D01*
X143152857Y-96194761D01*
X143010000Y-96242380D01*
X142771904Y-96242380D01*
X143819523Y-96242380D02*
X144010000Y-96242380D01*
X144105238Y-96194761D01*
X144152857Y-96147142D01*
X144248095Y-96004285D01*
X144295714Y-95813809D01*
X144295714Y-95432857D01*
X144248095Y-95337619D01*
X144200476Y-95290000D01*
X144105238Y-95242380D01*
X143914761Y-95242380D01*
X143819523Y-95290000D01*
X143771904Y-95337619D01*
X143724285Y-95432857D01*
X143724285Y-95670952D01*
X143771904Y-95766190D01*
X143819523Y-95813809D01*
X143914761Y-95861428D01*
X144105238Y-95861428D01*
X144200476Y-95813809D01*
X144248095Y-95766190D01*
X144295714Y-95670952D01*
X142771904Y-110212380D02*
X142771904Y-109212380D01*
X143010000Y-109212380D01*
X143152857Y-109260000D01*
X143248095Y-109355238D01*
X143295714Y-109450476D01*
X143343333Y-109640952D01*
X143343333Y-109783809D01*
X143295714Y-109974285D01*
X143248095Y-110069523D01*
X143152857Y-110164761D01*
X143010000Y-110212380D01*
X142771904Y-110212380D01*
X143914761Y-109640952D02*
X143819523Y-109593333D01*
X143771904Y-109545714D01*
X143724285Y-109450476D01*
X143724285Y-109402857D01*
X143771904Y-109307619D01*
X143819523Y-109260000D01*
X143914761Y-109212380D01*
X144105238Y-109212380D01*
X144200476Y-109260000D01*
X144248095Y-109307619D01*
X144295714Y-109402857D01*
X144295714Y-109450476D01*
X144248095Y-109545714D01*
X144200476Y-109593333D01*
X144105238Y-109640952D01*
X143914761Y-109640952D01*
X143819523Y-109688571D01*
X143771904Y-109736190D01*
X143724285Y-109831428D01*
X143724285Y-110021904D01*
X143771904Y-110117142D01*
X143819523Y-110164761D01*
X143914761Y-110212380D01*
X144105238Y-110212380D01*
X144200476Y-110164761D01*
X144248095Y-110117142D01*
X144295714Y-110021904D01*
X144295714Y-109831428D01*
X144248095Y-109736190D01*
X144200476Y-109688571D01*
X144105238Y-109640952D01*
X142771904Y-51792380D02*
X142771904Y-50792380D01*
X143010000Y-50792380D01*
X143152857Y-50840000D01*
X143248095Y-50935238D01*
X143295714Y-51030476D01*
X143343333Y-51220952D01*
X143343333Y-51363809D01*
X143295714Y-51554285D01*
X143248095Y-51649523D01*
X143152857Y-51744761D01*
X143010000Y-51792380D01*
X142771904Y-51792380D01*
X143676666Y-50792380D02*
X144343333Y-50792380D01*
X143914761Y-51792380D01*
X142771904Y-65762380D02*
X142771904Y-64762380D01*
X143010000Y-64762380D01*
X143152857Y-64810000D01*
X143248095Y-64905238D01*
X143295714Y-65000476D01*
X143343333Y-65190952D01*
X143343333Y-65333809D01*
X143295714Y-65524285D01*
X143248095Y-65619523D01*
X143152857Y-65714761D01*
X143010000Y-65762380D01*
X142771904Y-65762380D01*
X144200476Y-64762380D02*
X144010000Y-64762380D01*
X143914761Y-64810000D01*
X143867142Y-64857619D01*
X143771904Y-65000476D01*
X143724285Y-65190952D01*
X143724285Y-65571904D01*
X143771904Y-65667142D01*
X143819523Y-65714761D01*
X143914761Y-65762380D01*
X144105238Y-65762380D01*
X144200476Y-65714761D01*
X144248095Y-65667142D01*
X144295714Y-65571904D01*
X144295714Y-65333809D01*
X144248095Y-65238571D01*
X144200476Y-65190952D01*
X144105238Y-65143333D01*
X143914761Y-65143333D01*
X143819523Y-65190952D01*
X143771904Y-65238571D01*
X143724285Y-65333809D01*
X124991904Y-81002380D02*
X124991904Y-80002380D01*
X125230000Y-80002380D01*
X125372857Y-80050000D01*
X125468095Y-80145238D01*
X125515714Y-80240476D01*
X125563333Y-80430952D01*
X125563333Y-80573809D01*
X125515714Y-80764285D01*
X125468095Y-80859523D01*
X125372857Y-80954761D01*
X125230000Y-81002380D01*
X124991904Y-81002380D01*
X126468095Y-80002380D02*
X125991904Y-80002380D01*
X125944285Y-80478571D01*
X125991904Y-80430952D01*
X126087142Y-80383333D01*
X126325238Y-80383333D01*
X126420476Y-80430952D01*
X126468095Y-80478571D01*
X126515714Y-80573809D01*
X126515714Y-80811904D01*
X126468095Y-80907142D01*
X126420476Y-80954761D01*
X126325238Y-81002380D01*
X126087142Y-81002380D01*
X125991904Y-80954761D01*
X125944285Y-80907142D01*
X124991904Y-110212380D02*
X124991904Y-109212380D01*
X125230000Y-109212380D01*
X125372857Y-109260000D01*
X125468095Y-109355238D01*
X125515714Y-109450476D01*
X125563333Y-109640952D01*
X125563333Y-109783809D01*
X125515714Y-109974285D01*
X125468095Y-110069523D01*
X125372857Y-110164761D01*
X125230000Y-110212380D01*
X124991904Y-110212380D01*
X126420476Y-109545714D02*
X126420476Y-110212380D01*
X126182380Y-109164761D02*
X125944285Y-109879047D01*
X126563333Y-109879047D01*
X124991904Y-65762380D02*
X124991904Y-64762380D01*
X125230000Y-64762380D01*
X125372857Y-64810000D01*
X125468095Y-64905238D01*
X125515714Y-65000476D01*
X125563333Y-65190952D01*
X125563333Y-65333809D01*
X125515714Y-65524285D01*
X125468095Y-65619523D01*
X125372857Y-65714761D01*
X125230000Y-65762380D01*
X124991904Y-65762380D01*
X125896666Y-64762380D02*
X126515714Y-64762380D01*
X126182380Y-65143333D01*
X126325238Y-65143333D01*
X126420476Y-65190952D01*
X126468095Y-65238571D01*
X126515714Y-65333809D01*
X126515714Y-65571904D01*
X126468095Y-65667142D01*
X126420476Y-65714761D01*
X126325238Y-65762380D01*
X126039523Y-65762380D01*
X125944285Y-65714761D01*
X125896666Y-65667142D01*
X124991904Y-124182380D02*
X124991904Y-123182380D01*
X125230000Y-123182380D01*
X125372857Y-123230000D01*
X125468095Y-123325238D01*
X125515714Y-123420476D01*
X125563333Y-123610952D01*
X125563333Y-123753809D01*
X125515714Y-123944285D01*
X125468095Y-124039523D01*
X125372857Y-124134761D01*
X125230000Y-124182380D01*
X124991904Y-124182380D01*
X125944285Y-123277619D02*
X125991904Y-123230000D01*
X126087142Y-123182380D01*
X126325238Y-123182380D01*
X126420476Y-123230000D01*
X126468095Y-123277619D01*
X126515714Y-123372857D01*
X126515714Y-123468095D01*
X126468095Y-123610952D01*
X125896666Y-124182380D01*
X126515714Y-124182380D01*
X142771904Y-124182380D02*
X142771904Y-123182380D01*
X143010000Y-123182380D01*
X143152857Y-123230000D01*
X143248095Y-123325238D01*
X143295714Y-123420476D01*
X143343333Y-123610952D01*
X143343333Y-123753809D01*
X143295714Y-123944285D01*
X143248095Y-124039523D01*
X143152857Y-124134761D01*
X143010000Y-124182380D01*
X142771904Y-124182380D01*
X144295714Y-124182380D02*
X143724285Y-124182380D01*
X144010000Y-124182380D02*
X144010000Y-123182380D01*
X143914761Y-123325238D01*
X143819523Y-123420476D01*
X143724285Y-123468095D01*
X69373809Y-107254190D02*
X69373809Y-107730380D01*
X69040476Y-106730380D02*
X69373809Y-107254190D01*
X69707142Y-106730380D01*
X69992857Y-106825619D02*
X70040476Y-106778000D01*
X70135714Y-106730380D01*
X70373809Y-106730380D01*
X70469047Y-106778000D01*
X70516666Y-106825619D01*
X70564285Y-106920857D01*
X70564285Y-107016095D01*
X70516666Y-107158952D01*
X69945238Y-107730380D01*
X70564285Y-107730380D01*
X69881809Y-120716190D02*
X69881809Y-121192380D01*
X69548476Y-120192380D02*
X69881809Y-120716190D01*
X70215142Y-120192380D01*
X71072285Y-121192380D02*
X70500857Y-121192380D01*
X70786571Y-121192380D02*
X70786571Y-120192380D01*
X70691333Y-120335238D01*
X70596095Y-120430476D01*
X70500857Y-120478095D01*
X71882095Y-49914380D02*
X71882095Y-50723904D01*
X71929714Y-50819142D01*
X71977333Y-50866761D01*
X72072571Y-50914380D01*
X72263047Y-50914380D01*
X72358285Y-50866761D01*
X72405904Y-50819142D01*
X72453523Y-50723904D01*
X72453523Y-49914380D01*
X72882095Y-50009619D02*
X72929714Y-49962000D01*
X73024952Y-49914380D01*
X73263047Y-49914380D01*
X73358285Y-49962000D01*
X73405904Y-50009619D01*
X73453523Y-50104857D01*
X73453523Y-50200095D01*
X73405904Y-50342952D01*
X72834476Y-50914380D01*
X73453523Y-50914380D01*
X71628095Y-83442380D02*
X71628095Y-84251904D01*
X71675714Y-84347142D01*
X71723333Y-84394761D01*
X71818571Y-84442380D01*
X72009047Y-84442380D01*
X72104285Y-84394761D01*
X72151904Y-84347142D01*
X72199523Y-84251904D01*
X72199523Y-83442380D01*
X73199523Y-84442380D02*
X72628095Y-84442380D01*
X72913809Y-84442380D02*
X72913809Y-83442380D01*
X72818571Y-83585238D01*
X72723333Y-83680476D01*
X72628095Y-83728095D01*
X108909642Y-66366380D02*
X108576309Y-65890190D01*
X108338214Y-66366380D02*
X108338214Y-65366380D01*
X108719166Y-65366380D01*
X108814404Y-65414000D01*
X108862023Y-65461619D01*
X108909642Y-65556857D01*
X108909642Y-65699714D01*
X108862023Y-65794952D01*
X108814404Y-65842571D01*
X108719166Y-65890190D01*
X108338214Y-65890190D01*
X109862023Y-66366380D02*
X109290595Y-66366380D01*
X109576309Y-66366380D02*
X109576309Y-65366380D01*
X109481071Y-65509238D01*
X109385833Y-65604476D01*
X109290595Y-65652095D01*
X110242976Y-65461619D02*
X110290595Y-65414000D01*
X110385833Y-65366380D01*
X110623928Y-65366380D01*
X110719166Y-65414000D01*
X110766785Y-65461619D01*
X110814404Y-65556857D01*
X110814404Y-65652095D01*
X110766785Y-65794952D01*
X110195357Y-66366380D01*
X110814404Y-66366380D01*
X93337142Y-110816380D02*
X93003809Y-110340190D01*
X92765714Y-110816380D02*
X92765714Y-109816380D01*
X93146666Y-109816380D01*
X93241904Y-109864000D01*
X93289523Y-109911619D01*
X93337142Y-110006857D01*
X93337142Y-110149714D01*
X93289523Y-110244952D01*
X93241904Y-110292571D01*
X93146666Y-110340190D01*
X92765714Y-110340190D01*
X94289523Y-110816380D02*
X93718095Y-110816380D01*
X94003809Y-110816380D02*
X94003809Y-109816380D01*
X93908571Y-109959238D01*
X93813333Y-110054476D01*
X93718095Y-110102095D01*
X95241904Y-110816380D02*
X94670476Y-110816380D01*
X94956190Y-110816380D02*
X94956190Y-109816380D01*
X94860952Y-109959238D01*
X94765714Y-110054476D01*
X94670476Y-110102095D01*
X108577142Y-110562380D02*
X108243809Y-110086190D01*
X108005714Y-110562380D02*
X108005714Y-109562380D01*
X108386666Y-109562380D01*
X108481904Y-109610000D01*
X108529523Y-109657619D01*
X108577142Y-109752857D01*
X108577142Y-109895714D01*
X108529523Y-109990952D01*
X108481904Y-110038571D01*
X108386666Y-110086190D01*
X108005714Y-110086190D01*
X109529523Y-110562380D02*
X108958095Y-110562380D01*
X109243809Y-110562380D02*
X109243809Y-109562380D01*
X109148571Y-109705238D01*
X109053333Y-109800476D01*
X108958095Y-109848095D01*
X110148571Y-109562380D02*
X110243809Y-109562380D01*
X110339047Y-109610000D01*
X110386666Y-109657619D01*
X110434285Y-109752857D01*
X110481904Y-109943333D01*
X110481904Y-110181428D01*
X110434285Y-110371904D01*
X110386666Y-110467142D01*
X110339047Y-110514761D01*
X110243809Y-110562380D01*
X110148571Y-110562380D01*
X110053333Y-110514761D01*
X110005714Y-110467142D01*
X109958095Y-110371904D01*
X109910476Y-110181428D01*
X109910476Y-109943333D01*
X109958095Y-109752857D01*
X110005714Y-109657619D01*
X110053333Y-109610000D01*
X110148571Y-109562380D01*
X94067333Y-81352380D02*
X93734000Y-80876190D01*
X93495904Y-81352380D02*
X93495904Y-80352380D01*
X93876857Y-80352380D01*
X93972095Y-80400000D01*
X94019714Y-80447619D01*
X94067333Y-80542857D01*
X94067333Y-80685714D01*
X94019714Y-80780952D01*
X93972095Y-80828571D01*
X93876857Y-80876190D01*
X93495904Y-80876190D01*
X94543523Y-81352380D02*
X94734000Y-81352380D01*
X94829238Y-81304761D01*
X94876857Y-81257142D01*
X94972095Y-81114285D01*
X95019714Y-80923809D01*
X95019714Y-80542857D01*
X94972095Y-80447619D01*
X94924476Y-80400000D01*
X94829238Y-80352380D01*
X94638761Y-80352380D01*
X94543523Y-80400000D01*
X94495904Y-80447619D01*
X94448285Y-80542857D01*
X94448285Y-80780952D01*
X94495904Y-80876190D01*
X94543523Y-80923809D01*
X94638761Y-80971428D01*
X94829238Y-80971428D01*
X94924476Y-80923809D01*
X94972095Y-80876190D01*
X95019714Y-80780952D01*
X94321333Y-52904380D02*
X93988000Y-52428190D01*
X93749904Y-52904380D02*
X93749904Y-51904380D01*
X94130857Y-51904380D01*
X94226095Y-51952000D01*
X94273714Y-51999619D01*
X94321333Y-52094857D01*
X94321333Y-52237714D01*
X94273714Y-52332952D01*
X94226095Y-52380571D01*
X94130857Y-52428190D01*
X93749904Y-52428190D01*
X94892761Y-52332952D02*
X94797523Y-52285333D01*
X94749904Y-52237714D01*
X94702285Y-52142476D01*
X94702285Y-52094857D01*
X94749904Y-51999619D01*
X94797523Y-51952000D01*
X94892761Y-51904380D01*
X95083238Y-51904380D01*
X95178476Y-51952000D01*
X95226095Y-51999619D01*
X95273714Y-52094857D01*
X95273714Y-52142476D01*
X95226095Y-52237714D01*
X95178476Y-52285333D01*
X95083238Y-52332952D01*
X94892761Y-52332952D01*
X94797523Y-52380571D01*
X94749904Y-52428190D01*
X94702285Y-52523428D01*
X94702285Y-52713904D01*
X94749904Y-52809142D01*
X94797523Y-52856761D01*
X94892761Y-52904380D01*
X95083238Y-52904380D01*
X95178476Y-52856761D01*
X95226095Y-52809142D01*
X95273714Y-52713904D01*
X95273714Y-52523428D01*
X95226095Y-52428190D01*
X95178476Y-52380571D01*
X95083238Y-52332952D01*
X94067333Y-96338380D02*
X93734000Y-95862190D01*
X93495904Y-96338380D02*
X93495904Y-95338380D01*
X93876857Y-95338380D01*
X93972095Y-95386000D01*
X94019714Y-95433619D01*
X94067333Y-95528857D01*
X94067333Y-95671714D01*
X94019714Y-95766952D01*
X93972095Y-95814571D01*
X93876857Y-95862190D01*
X93495904Y-95862190D01*
X94400666Y-95338380D02*
X95067333Y-95338380D01*
X94638761Y-96338380D01*
X109053333Y-124532380D02*
X108720000Y-124056190D01*
X108481904Y-124532380D02*
X108481904Y-123532380D01*
X108862857Y-123532380D01*
X108958095Y-123580000D01*
X109005714Y-123627619D01*
X109053333Y-123722857D01*
X109053333Y-123865714D01*
X109005714Y-123960952D01*
X108958095Y-124008571D01*
X108862857Y-124056190D01*
X108481904Y-124056190D01*
X109910476Y-123532380D02*
X109720000Y-123532380D01*
X109624761Y-123580000D01*
X109577142Y-123627619D01*
X109481904Y-123770476D01*
X109434285Y-123960952D01*
X109434285Y-124341904D01*
X109481904Y-124437142D01*
X109529523Y-124484761D01*
X109624761Y-124532380D01*
X109815238Y-124532380D01*
X109910476Y-124484761D01*
X109958095Y-124437142D01*
X110005714Y-124341904D01*
X110005714Y-124103809D01*
X109958095Y-124008571D01*
X109910476Y-123960952D01*
X109815238Y-123913333D01*
X109624761Y-123913333D01*
X109529523Y-123960952D01*
X109481904Y-124008571D01*
X109434285Y-124103809D01*
X109561333Y-52650380D02*
X109228000Y-52174190D01*
X108989904Y-52650380D02*
X108989904Y-51650380D01*
X109370857Y-51650380D01*
X109466095Y-51698000D01*
X109513714Y-51745619D01*
X109561333Y-51840857D01*
X109561333Y-51983714D01*
X109513714Y-52078952D01*
X109466095Y-52126571D01*
X109370857Y-52174190D01*
X108989904Y-52174190D01*
X110466095Y-51650380D02*
X109989904Y-51650380D01*
X109942285Y-52126571D01*
X109989904Y-52078952D01*
X110085142Y-52031333D01*
X110323238Y-52031333D01*
X110418476Y-52078952D01*
X110466095Y-52126571D01*
X110513714Y-52221809D01*
X110513714Y-52459904D01*
X110466095Y-52555142D01*
X110418476Y-52602761D01*
X110323238Y-52650380D01*
X110085142Y-52650380D01*
X109989904Y-52602761D01*
X109942285Y-52555142D01*
X94321333Y-66366380D02*
X93988000Y-65890190D01*
X93749904Y-66366380D02*
X93749904Y-65366380D01*
X94130857Y-65366380D01*
X94226095Y-65414000D01*
X94273714Y-65461619D01*
X94321333Y-65556857D01*
X94321333Y-65699714D01*
X94273714Y-65794952D01*
X94226095Y-65842571D01*
X94130857Y-65890190D01*
X93749904Y-65890190D01*
X95178476Y-65699714D02*
X95178476Y-66366380D01*
X94940380Y-65318761D02*
X94702285Y-66033047D01*
X95321333Y-66033047D01*
X109053333Y-81352380D02*
X108720000Y-80876190D01*
X108481904Y-81352380D02*
X108481904Y-80352380D01*
X108862857Y-80352380D01*
X108958095Y-80400000D01*
X109005714Y-80447619D01*
X109053333Y-80542857D01*
X109053333Y-80685714D01*
X109005714Y-80780952D01*
X108958095Y-80828571D01*
X108862857Y-80876190D01*
X108481904Y-80876190D01*
X109386666Y-80352380D02*
X110005714Y-80352380D01*
X109672380Y-80733333D01*
X109815238Y-80733333D01*
X109910476Y-80780952D01*
X109958095Y-80828571D01*
X110005714Y-80923809D01*
X110005714Y-81161904D01*
X109958095Y-81257142D01*
X109910476Y-81304761D01*
X109815238Y-81352380D01*
X109529523Y-81352380D01*
X109434285Y-81304761D01*
X109386666Y-81257142D01*
X93813333Y-124532380D02*
X93480000Y-124056190D01*
X93241904Y-124532380D02*
X93241904Y-123532380D01*
X93622857Y-123532380D01*
X93718095Y-123580000D01*
X93765714Y-123627619D01*
X93813333Y-123722857D01*
X93813333Y-123865714D01*
X93765714Y-123960952D01*
X93718095Y-124008571D01*
X93622857Y-124056190D01*
X93241904Y-124056190D01*
X94194285Y-123627619D02*
X94241904Y-123580000D01*
X94337142Y-123532380D01*
X94575238Y-123532380D01*
X94670476Y-123580000D01*
X94718095Y-123627619D01*
X94765714Y-123722857D01*
X94765714Y-123818095D01*
X94718095Y-123960952D01*
X94146666Y-124532380D01*
X94765714Y-124532380D01*
X109053333Y-96338380D02*
X108720000Y-95862190D01*
X108481904Y-96338380D02*
X108481904Y-95338380D01*
X108862857Y-95338380D01*
X108958095Y-95386000D01*
X109005714Y-95433619D01*
X109053333Y-95528857D01*
X109053333Y-95671714D01*
X109005714Y-95766952D01*
X108958095Y-95814571D01*
X108862857Y-95862190D01*
X108481904Y-95862190D01*
X110005714Y-96338380D02*
X109434285Y-96338380D01*
X109720000Y-96338380D02*
X109720000Y-95338380D01*
X109624761Y-95481238D01*
X109529523Y-95576476D01*
X109434285Y-95624095D01*
X71040666Y-133048380D02*
X71040666Y-133762666D01*
X70993047Y-133905523D01*
X70897809Y-134000761D01*
X70754952Y-134048380D01*
X70659714Y-134048380D01*
X71469238Y-133143619D02*
X71516857Y-133096000D01*
X71612095Y-133048380D01*
X71850190Y-133048380D01*
X71945428Y-133096000D01*
X71993047Y-133143619D01*
X72040666Y-133238857D01*
X72040666Y-133334095D01*
X71993047Y-133476952D01*
X71421619Y-134048380D01*
X72040666Y-134048380D01*
X142414666Y-133048380D02*
X142414666Y-133762666D01*
X142367047Y-133905523D01*
X142271809Y-134000761D01*
X142128952Y-134048380D01*
X142033714Y-134048380D01*
X143414666Y-134048380D02*
X142843238Y-134048380D01*
X143128952Y-134048380D02*
X143128952Y-133048380D01*
X143033714Y-133191238D01*
X142938476Y-133286476D01*
X142843238Y-133334095D01*
M02*
