G04 #@! TF.GenerationSoftware,KiCad,Pcbnew,(5.1.4)-1*
G04 #@! TF.CreationDate,2022-12-24T01:49:45-08:00*
G04 #@! TF.ProjectId,SMD-Solder-Practice-Board,534d442d-536f-46c6-9465-722d50726163,rev?*
G04 #@! TF.SameCoordinates,Original*
G04 #@! TF.FileFunction,Soldermask,Bot*
G04 #@! TF.FilePolarity,Negative*
%FSLAX46Y46*%
G04 Gerber Fmt 4.6, Leading zero omitted, Abs format (unit mm)*
G04 Created by KiCad (PCBNEW (5.1.4)-1) date 2022-12-24 01:49:45*
%MOMM*%
%LPD*%
G04 APERTURE LIST*
%ADD10C,0.100000*%
G04 APERTURE END LIST*
D10*
G36*
X138526212Y-139522249D02*
G01*
X138620651Y-139550897D01*
X138707687Y-139597418D01*
X138783975Y-139660025D01*
X138846582Y-139736313D01*
X138893103Y-139823348D01*
X138921751Y-139917787D01*
X138929000Y-139991388D01*
X138929000Y-140840612D01*
X138921751Y-140914213D01*
X138893103Y-141008652D01*
X138846582Y-141095687D01*
X138783975Y-141171975D01*
X138707687Y-141234582D01*
X138620652Y-141281103D01*
X138526213Y-141309751D01*
X138428000Y-141319424D01*
X138329788Y-141309751D01*
X138235349Y-141281103D01*
X138148314Y-141234582D01*
X138072026Y-141171975D01*
X138009419Y-141095687D01*
X137962898Y-141008652D01*
X137934250Y-140914213D01*
X137927001Y-140840612D01*
X137927000Y-140840602D01*
X137927000Y-139991389D01*
X137934249Y-139917788D01*
X137962897Y-139823349D01*
X138009418Y-139736313D01*
X138072025Y-139660025D01*
X138148313Y-139597418D01*
X138235348Y-139550897D01*
X138329787Y-139522249D01*
X138428000Y-139512576D01*
X138526212Y-139522249D01*
X138526212Y-139522249D01*
G37*
G36*
X147166212Y-139522249D02*
G01*
X147260651Y-139550897D01*
X147347687Y-139597418D01*
X147423975Y-139660025D01*
X147486582Y-139736313D01*
X147533103Y-139823348D01*
X147561751Y-139917787D01*
X147569000Y-139991388D01*
X147569000Y-140840612D01*
X147561751Y-140914213D01*
X147533103Y-141008652D01*
X147486582Y-141095687D01*
X147423975Y-141171975D01*
X147347687Y-141234582D01*
X147260652Y-141281103D01*
X147166213Y-141309751D01*
X147068000Y-141319424D01*
X146969788Y-141309751D01*
X146875349Y-141281103D01*
X146788314Y-141234582D01*
X146712026Y-141171975D01*
X146649419Y-141095687D01*
X146602898Y-141008652D01*
X146574250Y-140914213D01*
X146567001Y-140840612D01*
X146567000Y-140840602D01*
X146567000Y-139991389D01*
X146574249Y-139917788D01*
X146602897Y-139823349D01*
X146649418Y-139736313D01*
X146712025Y-139660025D01*
X146788313Y-139597418D01*
X146875348Y-139550897D01*
X146969787Y-139522249D01*
X147068000Y-139512576D01*
X147166212Y-139522249D01*
X147166212Y-139522249D01*
G37*
G36*
X67152212Y-139522249D02*
G01*
X67246651Y-139550897D01*
X67333687Y-139597418D01*
X67409975Y-139660025D01*
X67472582Y-139736313D01*
X67519103Y-139823348D01*
X67547751Y-139917787D01*
X67555000Y-139991388D01*
X67555000Y-140840612D01*
X67547751Y-140914213D01*
X67519103Y-141008652D01*
X67472582Y-141095687D01*
X67409975Y-141171975D01*
X67333687Y-141234582D01*
X67246652Y-141281103D01*
X67152213Y-141309751D01*
X67054000Y-141319424D01*
X66955788Y-141309751D01*
X66861349Y-141281103D01*
X66774314Y-141234582D01*
X66698026Y-141171975D01*
X66635419Y-141095687D01*
X66588898Y-141008652D01*
X66560250Y-140914213D01*
X66553001Y-140840612D01*
X66553000Y-140840602D01*
X66553000Y-139991389D01*
X66560249Y-139917788D01*
X66588897Y-139823349D01*
X66635418Y-139736313D01*
X66698025Y-139660025D01*
X66774313Y-139597418D01*
X66861348Y-139550897D01*
X66955787Y-139522249D01*
X67054000Y-139512576D01*
X67152212Y-139522249D01*
X67152212Y-139522249D01*
G37*
G36*
X75792212Y-139522249D02*
G01*
X75886651Y-139550897D01*
X75973687Y-139597418D01*
X76049975Y-139660025D01*
X76112582Y-139736313D01*
X76159103Y-139823348D01*
X76187751Y-139917787D01*
X76195000Y-139991388D01*
X76195000Y-140840612D01*
X76187751Y-140914213D01*
X76159103Y-141008652D01*
X76112582Y-141095687D01*
X76049975Y-141171975D01*
X75973687Y-141234582D01*
X75886652Y-141281103D01*
X75792213Y-141309751D01*
X75694000Y-141319424D01*
X75595788Y-141309751D01*
X75501349Y-141281103D01*
X75414314Y-141234582D01*
X75338026Y-141171975D01*
X75275419Y-141095687D01*
X75228898Y-141008652D01*
X75200250Y-140914213D01*
X75193001Y-140840612D01*
X75193000Y-140840602D01*
X75193000Y-139991389D01*
X75200249Y-139917788D01*
X75228897Y-139823349D01*
X75275418Y-139736313D01*
X75338025Y-139660025D01*
X75414313Y-139597418D01*
X75501348Y-139550897D01*
X75595787Y-139522249D01*
X75694000Y-139512576D01*
X75792212Y-139522249D01*
X75792212Y-139522249D01*
G37*
G36*
X138526212Y-135202249D02*
G01*
X138620651Y-135230897D01*
X138707687Y-135277418D01*
X138783975Y-135340025D01*
X138846582Y-135416313D01*
X138893103Y-135503348D01*
X138921751Y-135597787D01*
X138929000Y-135671388D01*
X138929000Y-136820612D01*
X138921751Y-136894213D01*
X138893103Y-136988652D01*
X138846582Y-137075687D01*
X138783975Y-137151975D01*
X138707687Y-137214582D01*
X138620652Y-137261103D01*
X138526213Y-137289751D01*
X138428000Y-137299424D01*
X138329788Y-137289751D01*
X138235349Y-137261103D01*
X138148314Y-137214582D01*
X138072026Y-137151975D01*
X138009419Y-137075687D01*
X137962898Y-136988652D01*
X137934250Y-136894213D01*
X137927001Y-136820612D01*
X137927000Y-135671389D01*
X137934249Y-135597788D01*
X137962897Y-135503349D01*
X138009418Y-135416313D01*
X138072025Y-135340025D01*
X138148313Y-135277418D01*
X138235348Y-135230897D01*
X138329787Y-135202249D01*
X138428000Y-135192576D01*
X138526212Y-135202249D01*
X138526212Y-135202249D01*
G37*
G36*
X147166212Y-135202249D02*
G01*
X147260651Y-135230897D01*
X147347687Y-135277418D01*
X147423975Y-135340025D01*
X147486582Y-135416313D01*
X147533103Y-135503348D01*
X147561751Y-135597787D01*
X147569000Y-135671388D01*
X147569000Y-136820612D01*
X147561751Y-136894213D01*
X147533103Y-136988652D01*
X147486582Y-137075687D01*
X147423975Y-137151975D01*
X147347687Y-137214582D01*
X147260652Y-137261103D01*
X147166213Y-137289751D01*
X147068000Y-137299424D01*
X146969788Y-137289751D01*
X146875349Y-137261103D01*
X146788314Y-137214582D01*
X146712026Y-137151975D01*
X146649419Y-137075687D01*
X146602898Y-136988652D01*
X146574250Y-136894213D01*
X146567001Y-136820612D01*
X146567000Y-135671389D01*
X146574249Y-135597788D01*
X146602897Y-135503349D01*
X146649418Y-135416313D01*
X146712025Y-135340025D01*
X146788313Y-135277418D01*
X146875348Y-135230897D01*
X146969787Y-135202249D01*
X147068000Y-135192576D01*
X147166212Y-135202249D01*
X147166212Y-135202249D01*
G37*
G36*
X67152212Y-135202249D02*
G01*
X67246651Y-135230897D01*
X67333687Y-135277418D01*
X67409975Y-135340025D01*
X67472582Y-135416313D01*
X67519103Y-135503348D01*
X67547751Y-135597787D01*
X67555000Y-135671388D01*
X67555000Y-136820612D01*
X67547751Y-136894213D01*
X67519103Y-136988652D01*
X67472582Y-137075687D01*
X67409975Y-137151975D01*
X67333687Y-137214582D01*
X67246652Y-137261103D01*
X67152213Y-137289751D01*
X67054000Y-137299424D01*
X66955788Y-137289751D01*
X66861349Y-137261103D01*
X66774314Y-137214582D01*
X66698026Y-137151975D01*
X66635419Y-137075687D01*
X66588898Y-136988652D01*
X66560250Y-136894213D01*
X66553001Y-136820612D01*
X66553000Y-135671389D01*
X66560249Y-135597788D01*
X66588897Y-135503349D01*
X66635418Y-135416313D01*
X66698025Y-135340025D01*
X66774313Y-135277418D01*
X66861348Y-135230897D01*
X66955787Y-135202249D01*
X67054000Y-135192576D01*
X67152212Y-135202249D01*
X67152212Y-135202249D01*
G37*
G36*
X75792212Y-135202249D02*
G01*
X75886651Y-135230897D01*
X75973687Y-135277418D01*
X76049975Y-135340025D01*
X76112582Y-135416313D01*
X76159103Y-135503348D01*
X76187751Y-135597787D01*
X76195000Y-135671388D01*
X76195000Y-136820612D01*
X76187751Y-136894213D01*
X76159103Y-136988652D01*
X76112582Y-137075687D01*
X76049975Y-137151975D01*
X75973687Y-137214582D01*
X75886652Y-137261103D01*
X75792213Y-137289751D01*
X75694000Y-137299424D01*
X75595788Y-137289751D01*
X75501349Y-137261103D01*
X75414314Y-137214582D01*
X75338026Y-137151975D01*
X75275419Y-137075687D01*
X75228898Y-136988652D01*
X75200250Y-136894213D01*
X75193001Y-136820612D01*
X75193000Y-135671389D01*
X75200249Y-135597788D01*
X75228897Y-135503349D01*
X75275418Y-135416313D01*
X75338025Y-135340025D01*
X75414313Y-135277418D01*
X75501348Y-135230897D01*
X75595787Y-135202249D01*
X75694000Y-135192576D01*
X75792212Y-135202249D01*
X75792212Y-135202249D01*
G37*
G36*
X68586383Y-136388489D02*
G01*
X68586386Y-136388490D01*
X68586385Y-136388490D01*
X68650258Y-136414946D01*
X68707748Y-136453360D01*
X68756640Y-136502252D01*
X68795054Y-136559742D01*
X68816624Y-136611818D01*
X68821511Y-136623617D01*
X68835000Y-136691430D01*
X68835000Y-136760570D01*
X68821511Y-136828383D01*
X68821510Y-136828385D01*
X68795054Y-136892258D01*
X68756640Y-136949748D01*
X68707748Y-136998640D01*
X68650258Y-137037054D01*
X68598182Y-137058624D01*
X68586383Y-137063511D01*
X68518570Y-137077000D01*
X68449430Y-137077000D01*
X68381617Y-137063511D01*
X68369818Y-137058624D01*
X68317742Y-137037054D01*
X68260252Y-136998640D01*
X68211360Y-136949748D01*
X68172946Y-136892258D01*
X68146490Y-136828385D01*
X68146489Y-136828383D01*
X68133000Y-136760570D01*
X68133000Y-136691430D01*
X68146489Y-136623617D01*
X68151376Y-136611818D01*
X68172946Y-136559742D01*
X68211360Y-136502252D01*
X68260252Y-136453360D01*
X68317742Y-136414946D01*
X68381615Y-136388490D01*
X68381614Y-136388490D01*
X68381617Y-136388489D01*
X68449430Y-136375000D01*
X68518570Y-136375000D01*
X68586383Y-136388489D01*
X68586383Y-136388489D01*
G37*
G36*
X74366383Y-136388489D02*
G01*
X74366386Y-136388490D01*
X74366385Y-136388490D01*
X74430258Y-136414946D01*
X74487748Y-136453360D01*
X74536640Y-136502252D01*
X74575054Y-136559742D01*
X74596624Y-136611818D01*
X74601511Y-136623617D01*
X74615000Y-136691430D01*
X74615000Y-136760570D01*
X74601511Y-136828383D01*
X74601510Y-136828385D01*
X74575054Y-136892258D01*
X74536640Y-136949748D01*
X74487748Y-136998640D01*
X74430258Y-137037054D01*
X74378182Y-137058624D01*
X74366383Y-137063511D01*
X74298570Y-137077000D01*
X74229430Y-137077000D01*
X74161617Y-137063511D01*
X74149818Y-137058624D01*
X74097742Y-137037054D01*
X74040252Y-136998640D01*
X73991360Y-136949748D01*
X73952946Y-136892258D01*
X73926490Y-136828385D01*
X73926489Y-136828383D01*
X73913000Y-136760570D01*
X73913000Y-136691430D01*
X73926489Y-136623617D01*
X73931376Y-136611818D01*
X73952946Y-136559742D01*
X73991360Y-136502252D01*
X74040252Y-136453360D01*
X74097742Y-136414946D01*
X74161615Y-136388490D01*
X74161614Y-136388490D01*
X74161617Y-136388489D01*
X74229430Y-136375000D01*
X74298570Y-136375000D01*
X74366383Y-136388489D01*
X74366383Y-136388489D01*
G37*
G36*
X139960383Y-136388489D02*
G01*
X139960386Y-136388490D01*
X139960385Y-136388490D01*
X140024258Y-136414946D01*
X140081748Y-136453360D01*
X140130640Y-136502252D01*
X140169054Y-136559742D01*
X140190624Y-136611818D01*
X140195511Y-136623617D01*
X140209000Y-136691430D01*
X140209000Y-136760570D01*
X140195511Y-136828383D01*
X140195510Y-136828385D01*
X140169054Y-136892258D01*
X140130640Y-136949748D01*
X140081748Y-136998640D01*
X140024258Y-137037054D01*
X139972182Y-137058624D01*
X139960383Y-137063511D01*
X139892570Y-137077000D01*
X139823430Y-137077000D01*
X139755617Y-137063511D01*
X139743818Y-137058624D01*
X139691742Y-137037054D01*
X139634252Y-136998640D01*
X139585360Y-136949748D01*
X139546946Y-136892258D01*
X139520490Y-136828385D01*
X139520489Y-136828383D01*
X139507000Y-136760570D01*
X139507000Y-136691430D01*
X139520489Y-136623617D01*
X139525376Y-136611818D01*
X139546946Y-136559742D01*
X139585360Y-136502252D01*
X139634252Y-136453360D01*
X139691742Y-136414946D01*
X139755615Y-136388490D01*
X139755614Y-136388490D01*
X139755617Y-136388489D01*
X139823430Y-136375000D01*
X139892570Y-136375000D01*
X139960383Y-136388489D01*
X139960383Y-136388489D01*
G37*
G36*
X145740383Y-136388489D02*
G01*
X145740386Y-136388490D01*
X145740385Y-136388490D01*
X145804258Y-136414946D01*
X145861748Y-136453360D01*
X145910640Y-136502252D01*
X145949054Y-136559742D01*
X145970624Y-136611818D01*
X145975511Y-136623617D01*
X145989000Y-136691430D01*
X145989000Y-136760570D01*
X145975511Y-136828383D01*
X145975510Y-136828385D01*
X145949054Y-136892258D01*
X145910640Y-136949748D01*
X145861748Y-136998640D01*
X145804258Y-137037054D01*
X145752182Y-137058624D01*
X145740383Y-137063511D01*
X145672570Y-137077000D01*
X145603430Y-137077000D01*
X145535617Y-137063511D01*
X145523818Y-137058624D01*
X145471742Y-137037054D01*
X145414252Y-136998640D01*
X145365360Y-136949748D01*
X145326946Y-136892258D01*
X145300490Y-136828385D01*
X145300489Y-136828383D01*
X145287000Y-136760570D01*
X145287000Y-136691430D01*
X145300489Y-136623617D01*
X145305376Y-136611818D01*
X145326946Y-136559742D01*
X145365360Y-136502252D01*
X145414252Y-136453360D01*
X145471742Y-136414946D01*
X145535615Y-136388490D01*
X145535614Y-136388490D01*
X145535617Y-136388489D01*
X145603430Y-136375000D01*
X145672570Y-136375000D01*
X145740383Y-136388489D01*
X145740383Y-136388489D01*
G37*
M02*
