G04 #@! TF.GenerationSoftware,KiCad,Pcbnew,(5.1.4)-1*
G04 #@! TF.CreationDate,2022-12-24T01:49:45-08:00*
G04 #@! TF.ProjectId,SMD-Solder-Practice-Board,534d442d-536f-46c6-9465-722d50726163,rev?*
G04 #@! TF.SameCoordinates,Original*
G04 #@! TF.FileFunction,Soldermask,Top*
G04 #@! TF.FilePolarity,Negative*
%FSLAX46Y46*%
G04 Gerber Fmt 4.6, Leading zero omitted, Abs format (unit mm)*
G04 Created by KiCad (PCBNEW (5.1.4)-1) date 2022-12-24 01:49:45*
%MOMM*%
%LPD*%
G04 APERTURE LIST*
%ADD10C,0.100000*%
G04 APERTURE END LIST*
D10*
G36*
X147166212Y-139522249D02*
G01*
X147260651Y-139550897D01*
X147347687Y-139597418D01*
X147423975Y-139660025D01*
X147486582Y-139736313D01*
X147533103Y-139823348D01*
X147561751Y-139917787D01*
X147569000Y-139991388D01*
X147569000Y-140840612D01*
X147561751Y-140914213D01*
X147533103Y-141008652D01*
X147486582Y-141095687D01*
X147423975Y-141171975D01*
X147347687Y-141234582D01*
X147260652Y-141281103D01*
X147166213Y-141309751D01*
X147068000Y-141319424D01*
X146969788Y-141309751D01*
X146875349Y-141281103D01*
X146788314Y-141234582D01*
X146712026Y-141171975D01*
X146649419Y-141095687D01*
X146602898Y-141008652D01*
X146574250Y-140914213D01*
X146567001Y-140840612D01*
X146567000Y-140840602D01*
X146567000Y-139991389D01*
X146574249Y-139917788D01*
X146602897Y-139823349D01*
X146649418Y-139736313D01*
X146712025Y-139660025D01*
X146788313Y-139597418D01*
X146875348Y-139550897D01*
X146969787Y-139522249D01*
X147068000Y-139512576D01*
X147166212Y-139522249D01*
X147166212Y-139522249D01*
G37*
G36*
X138526212Y-139522249D02*
G01*
X138620651Y-139550897D01*
X138707687Y-139597418D01*
X138783975Y-139660025D01*
X138846582Y-139736313D01*
X138893103Y-139823348D01*
X138921751Y-139917787D01*
X138929000Y-139991388D01*
X138929000Y-140840612D01*
X138921751Y-140914213D01*
X138893103Y-141008652D01*
X138846582Y-141095687D01*
X138783975Y-141171975D01*
X138707687Y-141234582D01*
X138620652Y-141281103D01*
X138526213Y-141309751D01*
X138428000Y-141319424D01*
X138329788Y-141309751D01*
X138235349Y-141281103D01*
X138148314Y-141234582D01*
X138072026Y-141171975D01*
X138009419Y-141095687D01*
X137962898Y-141008652D01*
X137934250Y-140914213D01*
X137927001Y-140840612D01*
X137927000Y-140840602D01*
X137927000Y-139991389D01*
X137934249Y-139917788D01*
X137962897Y-139823349D01*
X138009418Y-139736313D01*
X138072025Y-139660025D01*
X138148313Y-139597418D01*
X138235348Y-139550897D01*
X138329787Y-139522249D01*
X138428000Y-139512576D01*
X138526212Y-139522249D01*
X138526212Y-139522249D01*
G37*
G36*
X75792212Y-139522249D02*
G01*
X75886651Y-139550897D01*
X75973687Y-139597418D01*
X76049975Y-139660025D01*
X76112582Y-139736313D01*
X76159103Y-139823348D01*
X76187751Y-139917787D01*
X76195000Y-139991388D01*
X76195000Y-140840612D01*
X76187751Y-140914213D01*
X76159103Y-141008652D01*
X76112582Y-141095687D01*
X76049975Y-141171975D01*
X75973687Y-141234582D01*
X75886652Y-141281103D01*
X75792213Y-141309751D01*
X75694000Y-141319424D01*
X75595788Y-141309751D01*
X75501349Y-141281103D01*
X75414314Y-141234582D01*
X75338026Y-141171975D01*
X75275419Y-141095687D01*
X75228898Y-141008652D01*
X75200250Y-140914213D01*
X75193001Y-140840612D01*
X75193000Y-140840602D01*
X75193000Y-139991389D01*
X75200249Y-139917788D01*
X75228897Y-139823349D01*
X75275418Y-139736313D01*
X75338025Y-139660025D01*
X75414313Y-139597418D01*
X75501348Y-139550897D01*
X75595787Y-139522249D01*
X75694000Y-139512576D01*
X75792212Y-139522249D01*
X75792212Y-139522249D01*
G37*
G36*
X67152212Y-139522249D02*
G01*
X67246651Y-139550897D01*
X67333687Y-139597418D01*
X67409975Y-139660025D01*
X67472582Y-139736313D01*
X67519103Y-139823348D01*
X67547751Y-139917787D01*
X67555000Y-139991388D01*
X67555000Y-140840612D01*
X67547751Y-140914213D01*
X67519103Y-141008652D01*
X67472582Y-141095687D01*
X67409975Y-141171975D01*
X67333687Y-141234582D01*
X67246652Y-141281103D01*
X67152213Y-141309751D01*
X67054000Y-141319424D01*
X66955788Y-141309751D01*
X66861349Y-141281103D01*
X66774314Y-141234582D01*
X66698026Y-141171975D01*
X66635419Y-141095687D01*
X66588898Y-141008652D01*
X66560250Y-140914213D01*
X66553001Y-140840612D01*
X66553000Y-140840602D01*
X66553000Y-139991389D01*
X66560249Y-139917788D01*
X66588897Y-139823349D01*
X66635418Y-139736313D01*
X66698025Y-139660025D01*
X66774313Y-139597418D01*
X66861348Y-139550897D01*
X66955787Y-139522249D01*
X67054000Y-139512576D01*
X67152212Y-139522249D01*
X67152212Y-139522249D01*
G37*
G36*
X138526212Y-135202249D02*
G01*
X138620651Y-135230897D01*
X138707687Y-135277418D01*
X138783975Y-135340025D01*
X138846582Y-135416313D01*
X138893103Y-135503348D01*
X138921751Y-135597787D01*
X138929000Y-135671388D01*
X138929000Y-136820612D01*
X138921751Y-136894213D01*
X138893103Y-136988652D01*
X138846582Y-137075687D01*
X138783975Y-137151975D01*
X138707687Y-137214582D01*
X138620652Y-137261103D01*
X138526213Y-137289751D01*
X138428000Y-137299424D01*
X138329788Y-137289751D01*
X138235349Y-137261103D01*
X138148314Y-137214582D01*
X138072026Y-137151975D01*
X138009419Y-137075687D01*
X137962898Y-136988652D01*
X137934250Y-136894213D01*
X137927001Y-136820612D01*
X137927000Y-135671389D01*
X137934249Y-135597788D01*
X137962897Y-135503349D01*
X138009418Y-135416313D01*
X138072025Y-135340025D01*
X138148313Y-135277418D01*
X138235348Y-135230897D01*
X138329787Y-135202249D01*
X138428000Y-135192576D01*
X138526212Y-135202249D01*
X138526212Y-135202249D01*
G37*
G36*
X75792212Y-135202249D02*
G01*
X75886651Y-135230897D01*
X75973687Y-135277418D01*
X76049975Y-135340025D01*
X76112582Y-135416313D01*
X76159103Y-135503348D01*
X76187751Y-135597787D01*
X76195000Y-135671388D01*
X76195000Y-136820612D01*
X76187751Y-136894213D01*
X76159103Y-136988652D01*
X76112582Y-137075687D01*
X76049975Y-137151975D01*
X75973687Y-137214582D01*
X75886652Y-137261103D01*
X75792213Y-137289751D01*
X75694000Y-137299424D01*
X75595788Y-137289751D01*
X75501349Y-137261103D01*
X75414314Y-137214582D01*
X75338026Y-137151975D01*
X75275419Y-137075687D01*
X75228898Y-136988652D01*
X75200250Y-136894213D01*
X75193001Y-136820612D01*
X75193000Y-135671389D01*
X75200249Y-135597788D01*
X75228897Y-135503349D01*
X75275418Y-135416313D01*
X75338025Y-135340025D01*
X75414313Y-135277418D01*
X75501348Y-135230897D01*
X75595787Y-135202249D01*
X75694000Y-135192576D01*
X75792212Y-135202249D01*
X75792212Y-135202249D01*
G37*
G36*
X67152212Y-135202249D02*
G01*
X67246651Y-135230897D01*
X67333687Y-135277418D01*
X67409975Y-135340025D01*
X67472582Y-135416313D01*
X67519103Y-135503348D01*
X67547751Y-135597787D01*
X67555000Y-135671388D01*
X67555000Y-136820612D01*
X67547751Y-136894213D01*
X67519103Y-136988652D01*
X67472582Y-137075687D01*
X67409975Y-137151975D01*
X67333687Y-137214582D01*
X67246652Y-137261103D01*
X67152213Y-137289751D01*
X67054000Y-137299424D01*
X66955788Y-137289751D01*
X66861349Y-137261103D01*
X66774314Y-137214582D01*
X66698026Y-137151975D01*
X66635419Y-137075687D01*
X66588898Y-136988652D01*
X66560250Y-136894213D01*
X66553001Y-136820612D01*
X66553000Y-135671389D01*
X66560249Y-135597788D01*
X66588897Y-135503349D01*
X66635418Y-135416313D01*
X66698025Y-135340025D01*
X66774313Y-135277418D01*
X66861348Y-135230897D01*
X66955787Y-135202249D01*
X67054000Y-135192576D01*
X67152212Y-135202249D01*
X67152212Y-135202249D01*
G37*
G36*
X147166212Y-135202249D02*
G01*
X147260651Y-135230897D01*
X147347687Y-135277418D01*
X147423975Y-135340025D01*
X147486582Y-135416313D01*
X147533103Y-135503348D01*
X147561751Y-135597787D01*
X147569000Y-135671388D01*
X147569000Y-136820612D01*
X147561751Y-136894213D01*
X147533103Y-136988652D01*
X147486582Y-137075687D01*
X147423975Y-137151975D01*
X147347687Y-137214582D01*
X147260652Y-137261103D01*
X147166213Y-137289751D01*
X147068000Y-137299424D01*
X146969788Y-137289751D01*
X146875349Y-137261103D01*
X146788314Y-137214582D01*
X146712026Y-137151975D01*
X146649419Y-137075687D01*
X146602898Y-136988652D01*
X146574250Y-136894213D01*
X146567001Y-136820612D01*
X146567000Y-135671389D01*
X146574249Y-135597788D01*
X146602897Y-135503349D01*
X146649418Y-135416313D01*
X146712025Y-135340025D01*
X146788313Y-135277418D01*
X146875348Y-135230897D01*
X146969787Y-135202249D01*
X147068000Y-135192576D01*
X147166212Y-135202249D01*
X147166212Y-135202249D01*
G37*
G36*
X146299000Y-136297000D02*
G01*
X146007163Y-136297000D01*
X145982777Y-136299402D01*
X145959328Y-136306515D01*
X145937717Y-136318066D01*
X145918775Y-136333611D01*
X145903230Y-136352553D01*
X145891679Y-136374164D01*
X145884566Y-136397613D01*
X145882164Y-136421999D01*
X145884566Y-136446385D01*
X145891679Y-136469834D01*
X145903230Y-136491445D01*
X145904246Y-136492683D01*
X145949054Y-136559742D01*
X145970624Y-136611818D01*
X145975511Y-136623617D01*
X145989000Y-136691430D01*
X145989000Y-136760570D01*
X145975511Y-136828383D01*
X145975510Y-136828385D01*
X145949054Y-136892258D01*
X145910640Y-136949748D01*
X145861748Y-136998640D01*
X145804258Y-137037054D01*
X145752182Y-137058624D01*
X145740383Y-137063511D01*
X145672570Y-137077000D01*
X145603430Y-137077000D01*
X145535617Y-137063511D01*
X145523818Y-137058624D01*
X145471742Y-137037054D01*
X145414252Y-136998640D01*
X145365360Y-136949748D01*
X145326946Y-136892258D01*
X145300490Y-136828385D01*
X145300489Y-136828383D01*
X145287000Y-136760570D01*
X145287000Y-136691430D01*
X145300489Y-136623617D01*
X145305376Y-136611818D01*
X145326946Y-136559742D01*
X145371754Y-136492683D01*
X145372770Y-136491445D01*
X145384321Y-136469834D01*
X145391434Y-136446385D01*
X145393836Y-136421999D01*
X145391434Y-136397613D01*
X145384321Y-136374164D01*
X145372770Y-136352553D01*
X145357225Y-136333611D01*
X145338283Y-136318066D01*
X145316672Y-136306515D01*
X145293223Y-136299402D01*
X145268837Y-136297000D01*
X140227163Y-136297000D01*
X140202777Y-136299402D01*
X140179328Y-136306515D01*
X140157717Y-136318066D01*
X140138775Y-136333611D01*
X140123230Y-136352553D01*
X140111679Y-136374164D01*
X140104566Y-136397613D01*
X140102164Y-136421999D01*
X140104566Y-136446385D01*
X140111679Y-136469834D01*
X140123230Y-136491445D01*
X140124246Y-136492683D01*
X140169054Y-136559742D01*
X140190624Y-136611818D01*
X140195511Y-136623617D01*
X140209000Y-136691430D01*
X140209000Y-136760570D01*
X140195511Y-136828383D01*
X140195510Y-136828385D01*
X140169054Y-136892258D01*
X140130640Y-136949748D01*
X140081748Y-136998640D01*
X140024258Y-137037054D01*
X139972182Y-137058624D01*
X139960383Y-137063511D01*
X139892570Y-137077000D01*
X139823430Y-137077000D01*
X139755617Y-137063511D01*
X139743818Y-137058624D01*
X139691742Y-137037054D01*
X139634252Y-136998640D01*
X139585360Y-136949748D01*
X139546946Y-136892258D01*
X139520490Y-136828385D01*
X139520489Y-136828383D01*
X139507000Y-136760570D01*
X139507000Y-136691430D01*
X139520489Y-136623617D01*
X139525376Y-136611818D01*
X139546946Y-136559742D01*
X139591754Y-136492683D01*
X139592770Y-136491445D01*
X139604321Y-136469834D01*
X139611434Y-136446385D01*
X139613836Y-136421999D01*
X139611434Y-136397613D01*
X139604321Y-136374164D01*
X139592770Y-136352553D01*
X139577225Y-136333611D01*
X139558283Y-136318066D01*
X139536672Y-136306515D01*
X139513223Y-136299402D01*
X139488837Y-136297000D01*
X139197000Y-136297000D01*
X139197000Y-135035000D01*
X146299000Y-135035000D01*
X146299000Y-136297000D01*
X146299000Y-136297000D01*
G37*
G36*
X74925000Y-136297000D02*
G01*
X74633163Y-136297000D01*
X74608777Y-136299402D01*
X74585328Y-136306515D01*
X74563717Y-136318066D01*
X74544775Y-136333611D01*
X74529230Y-136352553D01*
X74517679Y-136374164D01*
X74510566Y-136397613D01*
X74508164Y-136421999D01*
X74510566Y-136446385D01*
X74517679Y-136469834D01*
X74529230Y-136491445D01*
X74530246Y-136492683D01*
X74575054Y-136559742D01*
X74596624Y-136611818D01*
X74601511Y-136623617D01*
X74615000Y-136691430D01*
X74615000Y-136760570D01*
X74601511Y-136828383D01*
X74601510Y-136828385D01*
X74575054Y-136892258D01*
X74536640Y-136949748D01*
X74487748Y-136998640D01*
X74430258Y-137037054D01*
X74378182Y-137058624D01*
X74366383Y-137063511D01*
X74298570Y-137077000D01*
X74229430Y-137077000D01*
X74161617Y-137063511D01*
X74149818Y-137058624D01*
X74097742Y-137037054D01*
X74040252Y-136998640D01*
X73991360Y-136949748D01*
X73952946Y-136892258D01*
X73926490Y-136828385D01*
X73926489Y-136828383D01*
X73913000Y-136760570D01*
X73913000Y-136691430D01*
X73926489Y-136623617D01*
X73931376Y-136611818D01*
X73952946Y-136559742D01*
X73997754Y-136492683D01*
X73998770Y-136491445D01*
X74010321Y-136469834D01*
X74017434Y-136446385D01*
X74019836Y-136421999D01*
X74017434Y-136397613D01*
X74010321Y-136374164D01*
X73998770Y-136352553D01*
X73983225Y-136333611D01*
X73964283Y-136318066D01*
X73942672Y-136306515D01*
X73919223Y-136299402D01*
X73894837Y-136297000D01*
X68853163Y-136297000D01*
X68828777Y-136299402D01*
X68805328Y-136306515D01*
X68783717Y-136318066D01*
X68764775Y-136333611D01*
X68749230Y-136352553D01*
X68737679Y-136374164D01*
X68730566Y-136397613D01*
X68728164Y-136421999D01*
X68730566Y-136446385D01*
X68737679Y-136469834D01*
X68749230Y-136491445D01*
X68750246Y-136492683D01*
X68795054Y-136559742D01*
X68816624Y-136611818D01*
X68821511Y-136623617D01*
X68835000Y-136691430D01*
X68835000Y-136760570D01*
X68821511Y-136828383D01*
X68821510Y-136828385D01*
X68795054Y-136892258D01*
X68756640Y-136949748D01*
X68707748Y-136998640D01*
X68650258Y-137037054D01*
X68598182Y-137058624D01*
X68586383Y-137063511D01*
X68518570Y-137077000D01*
X68449430Y-137077000D01*
X68381617Y-137063511D01*
X68369818Y-137058624D01*
X68317742Y-137037054D01*
X68260252Y-136998640D01*
X68211360Y-136949748D01*
X68172946Y-136892258D01*
X68146490Y-136828385D01*
X68146489Y-136828383D01*
X68133000Y-136760570D01*
X68133000Y-136691430D01*
X68146489Y-136623617D01*
X68151376Y-136611818D01*
X68172946Y-136559742D01*
X68217754Y-136492683D01*
X68218770Y-136491445D01*
X68230321Y-136469834D01*
X68237434Y-136446385D01*
X68239836Y-136421999D01*
X68237434Y-136397613D01*
X68230321Y-136374164D01*
X68218770Y-136352553D01*
X68203225Y-136333611D01*
X68184283Y-136318066D01*
X68162672Y-136306515D01*
X68139223Y-136299402D01*
X68114837Y-136297000D01*
X67823000Y-136297000D01*
X67823000Y-135035000D01*
X74925000Y-135035000D01*
X74925000Y-136297000D01*
X74925000Y-136297000D01*
G37*
G36*
X108654468Y-124983565D02*
G01*
X108693138Y-124995296D01*
X108728777Y-125014346D01*
X108760017Y-125039983D01*
X108785654Y-125071223D01*
X108804704Y-125106862D01*
X108816435Y-125145532D01*
X108821000Y-125191888D01*
X108821000Y-126268112D01*
X108816435Y-126314468D01*
X108804704Y-126353138D01*
X108785654Y-126388777D01*
X108760017Y-126420017D01*
X108728777Y-126445654D01*
X108693138Y-126464704D01*
X108654468Y-126476435D01*
X108608112Y-126481000D01*
X107956888Y-126481000D01*
X107910532Y-126476435D01*
X107871862Y-126464704D01*
X107836223Y-126445654D01*
X107804983Y-126420017D01*
X107779346Y-126388777D01*
X107760296Y-126353138D01*
X107748565Y-126314468D01*
X107744000Y-126268112D01*
X107744000Y-125191888D01*
X107748565Y-125145532D01*
X107760296Y-125106862D01*
X107779346Y-125071223D01*
X107804983Y-125039983D01*
X107836223Y-125014346D01*
X107871862Y-124995296D01*
X107910532Y-124983565D01*
X107956888Y-124979000D01*
X108608112Y-124979000D01*
X108654468Y-124983565D01*
X108654468Y-124983565D01*
G37*
G36*
X93414468Y-124983565D02*
G01*
X93453138Y-124995296D01*
X93488777Y-125014346D01*
X93520017Y-125039983D01*
X93545654Y-125071223D01*
X93564704Y-125106862D01*
X93576435Y-125145532D01*
X93581000Y-125191888D01*
X93581000Y-126268112D01*
X93576435Y-126314468D01*
X93564704Y-126353138D01*
X93545654Y-126388777D01*
X93520017Y-126420017D01*
X93488777Y-126445654D01*
X93453138Y-126464704D01*
X93414468Y-126476435D01*
X93368112Y-126481000D01*
X92716888Y-126481000D01*
X92670532Y-126476435D01*
X92631862Y-126464704D01*
X92596223Y-126445654D01*
X92564983Y-126420017D01*
X92539346Y-126388777D01*
X92520296Y-126353138D01*
X92508565Y-126314468D01*
X92504000Y-126268112D01*
X92504000Y-125191888D01*
X92508565Y-125145532D01*
X92520296Y-125106862D01*
X92539346Y-125071223D01*
X92564983Y-125039983D01*
X92596223Y-125014346D01*
X92631862Y-124995296D01*
X92670532Y-124983565D01*
X92716888Y-124979000D01*
X93368112Y-124979000D01*
X93414468Y-124983565D01*
X93414468Y-124983565D01*
G37*
G36*
X95289468Y-124983565D02*
G01*
X95328138Y-124995296D01*
X95363777Y-125014346D01*
X95395017Y-125039983D01*
X95420654Y-125071223D01*
X95439704Y-125106862D01*
X95451435Y-125145532D01*
X95456000Y-125191888D01*
X95456000Y-126268112D01*
X95451435Y-126314468D01*
X95439704Y-126353138D01*
X95420654Y-126388777D01*
X95395017Y-126420017D01*
X95363777Y-126445654D01*
X95328138Y-126464704D01*
X95289468Y-126476435D01*
X95243112Y-126481000D01*
X94591888Y-126481000D01*
X94545532Y-126476435D01*
X94506862Y-126464704D01*
X94471223Y-126445654D01*
X94439983Y-126420017D01*
X94414346Y-126388777D01*
X94395296Y-126353138D01*
X94383565Y-126314468D01*
X94379000Y-126268112D01*
X94379000Y-125191888D01*
X94383565Y-125145532D01*
X94395296Y-125106862D01*
X94414346Y-125071223D01*
X94439983Y-125039983D01*
X94471223Y-125014346D01*
X94506862Y-124995296D01*
X94545532Y-124983565D01*
X94591888Y-124979000D01*
X95243112Y-124979000D01*
X95289468Y-124983565D01*
X95289468Y-124983565D01*
G37*
G36*
X110529468Y-124983565D02*
G01*
X110568138Y-124995296D01*
X110603777Y-125014346D01*
X110635017Y-125039983D01*
X110660654Y-125071223D01*
X110679704Y-125106862D01*
X110691435Y-125145532D01*
X110696000Y-125191888D01*
X110696000Y-126268112D01*
X110691435Y-126314468D01*
X110679704Y-126353138D01*
X110660654Y-126388777D01*
X110635017Y-126420017D01*
X110603777Y-126445654D01*
X110568138Y-126464704D01*
X110529468Y-126476435D01*
X110483112Y-126481000D01*
X109831888Y-126481000D01*
X109785532Y-126476435D01*
X109746862Y-126464704D01*
X109711223Y-126445654D01*
X109679983Y-126420017D01*
X109654346Y-126388777D01*
X109635296Y-126353138D01*
X109623565Y-126314468D01*
X109619000Y-126268112D01*
X109619000Y-125191888D01*
X109623565Y-125145532D01*
X109635296Y-125106862D01*
X109654346Y-125071223D01*
X109679983Y-125039983D01*
X109711223Y-125014346D01*
X109746862Y-124995296D01*
X109785532Y-124983565D01*
X109831888Y-124979000D01*
X110483112Y-124979000D01*
X110529468Y-124983565D01*
X110529468Y-124983565D01*
G37*
G36*
X145661000Y-126381000D02*
G01*
X144659000Y-126381000D01*
X144659000Y-125079000D01*
X145661000Y-125079000D01*
X145661000Y-126381000D01*
X145661000Y-126381000D01*
G37*
G36*
X142361000Y-126381000D02*
G01*
X141359000Y-126381000D01*
X141359000Y-125079000D01*
X142361000Y-125079000D01*
X142361000Y-126381000D01*
X142361000Y-126381000D01*
G37*
G36*
X127881000Y-126381000D02*
G01*
X126879000Y-126381000D01*
X126879000Y-125079000D01*
X127881000Y-125079000D01*
X127881000Y-126381000D01*
X127881000Y-126381000D01*
G37*
G36*
X124581000Y-126381000D02*
G01*
X123579000Y-126381000D01*
X123579000Y-125079000D01*
X124581000Y-125079000D01*
X124581000Y-126381000D01*
X124581000Y-126381000D01*
G37*
G36*
X70009000Y-124691000D02*
G01*
X68507000Y-124691000D01*
X68507000Y-123389000D01*
X70009000Y-123389000D01*
X70009000Y-124691000D01*
X70009000Y-124691000D01*
G37*
G36*
X72209000Y-124691000D02*
G01*
X70707000Y-124691000D01*
X70707000Y-123389000D01*
X72209000Y-123389000D01*
X72209000Y-124691000D01*
X72209000Y-124691000D01*
G37*
G36*
X70009000Y-122991000D02*
G01*
X68507000Y-122991000D01*
X68507000Y-121689000D01*
X70009000Y-121689000D01*
X70009000Y-122991000D01*
X70009000Y-122991000D01*
G37*
G36*
X72209000Y-122991000D02*
G01*
X70707000Y-122991000D01*
X70707000Y-121689000D01*
X72209000Y-121689000D01*
X72209000Y-122991000D01*
X72209000Y-122991000D01*
G37*
G36*
X93414468Y-111267565D02*
G01*
X93453138Y-111279296D01*
X93488777Y-111298346D01*
X93520017Y-111323983D01*
X93545654Y-111355223D01*
X93564704Y-111390862D01*
X93576435Y-111429532D01*
X93581000Y-111475888D01*
X93581000Y-112552112D01*
X93576435Y-112598468D01*
X93564704Y-112637138D01*
X93545654Y-112672777D01*
X93520017Y-112704017D01*
X93488777Y-112729654D01*
X93453138Y-112748704D01*
X93414468Y-112760435D01*
X93368112Y-112765000D01*
X92716888Y-112765000D01*
X92670532Y-112760435D01*
X92631862Y-112748704D01*
X92596223Y-112729654D01*
X92564983Y-112704017D01*
X92539346Y-112672777D01*
X92520296Y-112637138D01*
X92508565Y-112598468D01*
X92504000Y-112552112D01*
X92504000Y-111475888D01*
X92508565Y-111429532D01*
X92520296Y-111390862D01*
X92539346Y-111355223D01*
X92564983Y-111323983D01*
X92596223Y-111298346D01*
X92631862Y-111279296D01*
X92670532Y-111267565D01*
X92716888Y-111263000D01*
X93368112Y-111263000D01*
X93414468Y-111267565D01*
X93414468Y-111267565D01*
G37*
G36*
X95289468Y-111267565D02*
G01*
X95328138Y-111279296D01*
X95363777Y-111298346D01*
X95395017Y-111323983D01*
X95420654Y-111355223D01*
X95439704Y-111390862D01*
X95451435Y-111429532D01*
X95456000Y-111475888D01*
X95456000Y-112552112D01*
X95451435Y-112598468D01*
X95439704Y-112637138D01*
X95420654Y-112672777D01*
X95395017Y-112704017D01*
X95363777Y-112729654D01*
X95328138Y-112748704D01*
X95289468Y-112760435D01*
X95243112Y-112765000D01*
X94591888Y-112765000D01*
X94545532Y-112760435D01*
X94506862Y-112748704D01*
X94471223Y-112729654D01*
X94439983Y-112704017D01*
X94414346Y-112672777D01*
X94395296Y-112637138D01*
X94383565Y-112598468D01*
X94379000Y-112552112D01*
X94379000Y-111475888D01*
X94383565Y-111429532D01*
X94395296Y-111390862D01*
X94414346Y-111355223D01*
X94439983Y-111323983D01*
X94471223Y-111298346D01*
X94506862Y-111279296D01*
X94545532Y-111267565D01*
X94591888Y-111263000D01*
X95243112Y-111263000D01*
X95289468Y-111267565D01*
X95289468Y-111267565D01*
G37*
G36*
X110529468Y-111013565D02*
G01*
X110568138Y-111025296D01*
X110603777Y-111044346D01*
X110635017Y-111069983D01*
X110660654Y-111101223D01*
X110679704Y-111136862D01*
X110691435Y-111175532D01*
X110696000Y-111221888D01*
X110696000Y-112298112D01*
X110691435Y-112344468D01*
X110679704Y-112383138D01*
X110660654Y-112418777D01*
X110635017Y-112450017D01*
X110603777Y-112475654D01*
X110568138Y-112494704D01*
X110529468Y-112506435D01*
X110483112Y-112511000D01*
X109831888Y-112511000D01*
X109785532Y-112506435D01*
X109746862Y-112494704D01*
X109711223Y-112475654D01*
X109679983Y-112450017D01*
X109654346Y-112418777D01*
X109635296Y-112383138D01*
X109623565Y-112344468D01*
X109619000Y-112298112D01*
X109619000Y-111221888D01*
X109623565Y-111175532D01*
X109635296Y-111136862D01*
X109654346Y-111101223D01*
X109679983Y-111069983D01*
X109711223Y-111044346D01*
X109746862Y-111025296D01*
X109785532Y-111013565D01*
X109831888Y-111009000D01*
X110483112Y-111009000D01*
X110529468Y-111013565D01*
X110529468Y-111013565D01*
G37*
G36*
X108654468Y-111013565D02*
G01*
X108693138Y-111025296D01*
X108728777Y-111044346D01*
X108760017Y-111069983D01*
X108785654Y-111101223D01*
X108804704Y-111136862D01*
X108816435Y-111175532D01*
X108821000Y-111221888D01*
X108821000Y-112298112D01*
X108816435Y-112344468D01*
X108804704Y-112383138D01*
X108785654Y-112418777D01*
X108760017Y-112450017D01*
X108728777Y-112475654D01*
X108693138Y-112494704D01*
X108654468Y-112506435D01*
X108608112Y-112511000D01*
X107956888Y-112511000D01*
X107910532Y-112506435D01*
X107871862Y-112494704D01*
X107836223Y-112475654D01*
X107804983Y-112450017D01*
X107779346Y-112418777D01*
X107760296Y-112383138D01*
X107748565Y-112344468D01*
X107744000Y-112298112D01*
X107744000Y-111221888D01*
X107748565Y-111175532D01*
X107760296Y-111136862D01*
X107779346Y-111101223D01*
X107804983Y-111069983D01*
X107836223Y-111044346D01*
X107871862Y-111025296D01*
X107910532Y-111013565D01*
X107956888Y-111009000D01*
X108608112Y-111009000D01*
X108654468Y-111013565D01*
X108654468Y-111013565D01*
G37*
G36*
X124581000Y-112411000D02*
G01*
X123579000Y-112411000D01*
X123579000Y-111109000D01*
X124581000Y-111109000D01*
X124581000Y-112411000D01*
X124581000Y-112411000D01*
G37*
G36*
X127881000Y-112411000D02*
G01*
X126879000Y-112411000D01*
X126879000Y-111109000D01*
X127881000Y-111109000D01*
X127881000Y-112411000D01*
X127881000Y-112411000D01*
G37*
G36*
X145661000Y-112411000D02*
G01*
X144659000Y-112411000D01*
X144659000Y-111109000D01*
X145661000Y-111109000D01*
X145661000Y-112411000D01*
X145661000Y-112411000D01*
G37*
G36*
X142361000Y-112411000D02*
G01*
X141359000Y-112411000D01*
X141359000Y-111109000D01*
X142361000Y-111109000D01*
X142361000Y-112411000D01*
X142361000Y-112411000D01*
G37*
G36*
X71701000Y-111229000D02*
G01*
X70199000Y-111229000D01*
X70199000Y-109927000D01*
X71701000Y-109927000D01*
X71701000Y-111229000D01*
X71701000Y-111229000D01*
G37*
G36*
X69501000Y-111229000D02*
G01*
X67999000Y-111229000D01*
X67999000Y-109927000D01*
X69501000Y-109927000D01*
X69501000Y-111229000D01*
X69501000Y-111229000D01*
G37*
G36*
X71701000Y-109529000D02*
G01*
X70199000Y-109529000D01*
X70199000Y-108227000D01*
X71701000Y-108227000D01*
X71701000Y-109529000D01*
X71701000Y-109529000D01*
G37*
G36*
X69501000Y-109529000D02*
G01*
X67999000Y-109529000D01*
X67999000Y-108227000D01*
X69501000Y-108227000D01*
X69501000Y-109529000D01*
X69501000Y-109529000D01*
G37*
G36*
X124581000Y-98441000D02*
G01*
X123579000Y-98441000D01*
X123579000Y-97139000D01*
X124581000Y-97139000D01*
X124581000Y-98441000D01*
X124581000Y-98441000D01*
G37*
G36*
X145661000Y-98441000D02*
G01*
X144659000Y-98441000D01*
X144659000Y-97139000D01*
X145661000Y-97139000D01*
X145661000Y-98441000D01*
X145661000Y-98441000D01*
G37*
G36*
X127881000Y-98441000D02*
G01*
X126879000Y-98441000D01*
X126879000Y-97139000D01*
X127881000Y-97139000D01*
X127881000Y-98441000D01*
X127881000Y-98441000D01*
G37*
G36*
X142361000Y-98441000D02*
G01*
X141359000Y-98441000D01*
X141359000Y-97139000D01*
X142361000Y-97139000D01*
X142361000Y-98441000D01*
X142361000Y-98441000D01*
G37*
G36*
X95543468Y-96789565D02*
G01*
X95582138Y-96801296D01*
X95617777Y-96820346D01*
X95649017Y-96845983D01*
X95674654Y-96877223D01*
X95693704Y-96912862D01*
X95705435Y-96951532D01*
X95710000Y-96997888D01*
X95710000Y-98074112D01*
X95705435Y-98120468D01*
X95693704Y-98159138D01*
X95674654Y-98194777D01*
X95649017Y-98226017D01*
X95617777Y-98251654D01*
X95582138Y-98270704D01*
X95543468Y-98282435D01*
X95497112Y-98287000D01*
X94845888Y-98287000D01*
X94799532Y-98282435D01*
X94760862Y-98270704D01*
X94725223Y-98251654D01*
X94693983Y-98226017D01*
X94668346Y-98194777D01*
X94649296Y-98159138D01*
X94637565Y-98120468D01*
X94633000Y-98074112D01*
X94633000Y-96997888D01*
X94637565Y-96951532D01*
X94649296Y-96912862D01*
X94668346Y-96877223D01*
X94693983Y-96845983D01*
X94725223Y-96820346D01*
X94760862Y-96801296D01*
X94799532Y-96789565D01*
X94845888Y-96785000D01*
X95497112Y-96785000D01*
X95543468Y-96789565D01*
X95543468Y-96789565D01*
G37*
G36*
X93668468Y-96789565D02*
G01*
X93707138Y-96801296D01*
X93742777Y-96820346D01*
X93774017Y-96845983D01*
X93799654Y-96877223D01*
X93818704Y-96912862D01*
X93830435Y-96951532D01*
X93835000Y-96997888D01*
X93835000Y-98074112D01*
X93830435Y-98120468D01*
X93818704Y-98159138D01*
X93799654Y-98194777D01*
X93774017Y-98226017D01*
X93742777Y-98251654D01*
X93707138Y-98270704D01*
X93668468Y-98282435D01*
X93622112Y-98287000D01*
X92970888Y-98287000D01*
X92924532Y-98282435D01*
X92885862Y-98270704D01*
X92850223Y-98251654D01*
X92818983Y-98226017D01*
X92793346Y-98194777D01*
X92774296Y-98159138D01*
X92762565Y-98120468D01*
X92758000Y-98074112D01*
X92758000Y-96997888D01*
X92762565Y-96951532D01*
X92774296Y-96912862D01*
X92793346Y-96877223D01*
X92818983Y-96845983D01*
X92850223Y-96820346D01*
X92885862Y-96801296D01*
X92924532Y-96789565D01*
X92970888Y-96785000D01*
X93622112Y-96785000D01*
X93668468Y-96789565D01*
X93668468Y-96789565D01*
G37*
G36*
X110529468Y-96789565D02*
G01*
X110568138Y-96801296D01*
X110603777Y-96820346D01*
X110635017Y-96845983D01*
X110660654Y-96877223D01*
X110679704Y-96912862D01*
X110691435Y-96951532D01*
X110696000Y-96997888D01*
X110696000Y-98074112D01*
X110691435Y-98120468D01*
X110679704Y-98159138D01*
X110660654Y-98194777D01*
X110635017Y-98226017D01*
X110603777Y-98251654D01*
X110568138Y-98270704D01*
X110529468Y-98282435D01*
X110483112Y-98287000D01*
X109831888Y-98287000D01*
X109785532Y-98282435D01*
X109746862Y-98270704D01*
X109711223Y-98251654D01*
X109679983Y-98226017D01*
X109654346Y-98194777D01*
X109635296Y-98159138D01*
X109623565Y-98120468D01*
X109619000Y-98074112D01*
X109619000Y-96997888D01*
X109623565Y-96951532D01*
X109635296Y-96912862D01*
X109654346Y-96877223D01*
X109679983Y-96845983D01*
X109711223Y-96820346D01*
X109746862Y-96801296D01*
X109785532Y-96789565D01*
X109831888Y-96785000D01*
X110483112Y-96785000D01*
X110529468Y-96789565D01*
X110529468Y-96789565D01*
G37*
G36*
X108654468Y-96789565D02*
G01*
X108693138Y-96801296D01*
X108728777Y-96820346D01*
X108760017Y-96845983D01*
X108785654Y-96877223D01*
X108804704Y-96912862D01*
X108816435Y-96951532D01*
X108821000Y-96997888D01*
X108821000Y-98074112D01*
X108816435Y-98120468D01*
X108804704Y-98159138D01*
X108785654Y-98194777D01*
X108760017Y-98226017D01*
X108728777Y-98251654D01*
X108693138Y-98270704D01*
X108654468Y-98282435D01*
X108608112Y-98287000D01*
X107956888Y-98287000D01*
X107910532Y-98282435D01*
X107871862Y-98270704D01*
X107836223Y-98251654D01*
X107804983Y-98226017D01*
X107779346Y-98194777D01*
X107760296Y-98159138D01*
X107748565Y-98120468D01*
X107744000Y-98074112D01*
X107744000Y-96997888D01*
X107748565Y-96951532D01*
X107760296Y-96912862D01*
X107779346Y-96877223D01*
X107804983Y-96845983D01*
X107836223Y-96820346D01*
X107871862Y-96801296D01*
X107910532Y-96789565D01*
X107956888Y-96785000D01*
X108608112Y-96785000D01*
X108654468Y-96789565D01*
X108654468Y-96789565D01*
G37*
G36*
X76716000Y-97941000D02*
G01*
X68064000Y-97941000D01*
X68064000Y-96339000D01*
X76716000Y-96339000D01*
X76716000Y-97941000D01*
X76716000Y-97941000D01*
G37*
G36*
X67491000Y-95766000D02*
G01*
X65889000Y-95766000D01*
X65889000Y-87114000D01*
X67491000Y-87114000D01*
X67491000Y-95766000D01*
X67491000Y-95766000D01*
G37*
G36*
X78891000Y-95766000D02*
G01*
X77289000Y-95766000D01*
X77289000Y-87114000D01*
X78891000Y-87114000D01*
X78891000Y-95766000D01*
X78891000Y-95766000D01*
G37*
G36*
X76716000Y-86541000D02*
G01*
X68064000Y-86541000D01*
X68064000Y-84939000D01*
X76716000Y-84939000D01*
X76716000Y-86541000D01*
X76716000Y-86541000D01*
G37*
G36*
X108654468Y-81803565D02*
G01*
X108693138Y-81815296D01*
X108728777Y-81834346D01*
X108760017Y-81859983D01*
X108785654Y-81891223D01*
X108804704Y-81926862D01*
X108816435Y-81965532D01*
X108821000Y-82011888D01*
X108821000Y-83088112D01*
X108816435Y-83134468D01*
X108804704Y-83173138D01*
X108785654Y-83208777D01*
X108760017Y-83240017D01*
X108728777Y-83265654D01*
X108693138Y-83284704D01*
X108654468Y-83296435D01*
X108608112Y-83301000D01*
X107956888Y-83301000D01*
X107910532Y-83296435D01*
X107871862Y-83284704D01*
X107836223Y-83265654D01*
X107804983Y-83240017D01*
X107779346Y-83208777D01*
X107760296Y-83173138D01*
X107748565Y-83134468D01*
X107744000Y-83088112D01*
X107744000Y-82011888D01*
X107748565Y-81965532D01*
X107760296Y-81926862D01*
X107779346Y-81891223D01*
X107804983Y-81859983D01*
X107836223Y-81834346D01*
X107871862Y-81815296D01*
X107910532Y-81803565D01*
X107956888Y-81799000D01*
X108608112Y-81799000D01*
X108654468Y-81803565D01*
X108654468Y-81803565D01*
G37*
G36*
X110529468Y-81803565D02*
G01*
X110568138Y-81815296D01*
X110603777Y-81834346D01*
X110635017Y-81859983D01*
X110660654Y-81891223D01*
X110679704Y-81926862D01*
X110691435Y-81965532D01*
X110696000Y-82011888D01*
X110696000Y-83088112D01*
X110691435Y-83134468D01*
X110679704Y-83173138D01*
X110660654Y-83208777D01*
X110635017Y-83240017D01*
X110603777Y-83265654D01*
X110568138Y-83284704D01*
X110529468Y-83296435D01*
X110483112Y-83301000D01*
X109831888Y-83301000D01*
X109785532Y-83296435D01*
X109746862Y-83284704D01*
X109711223Y-83265654D01*
X109679983Y-83240017D01*
X109654346Y-83208777D01*
X109635296Y-83173138D01*
X109623565Y-83134468D01*
X109619000Y-83088112D01*
X109619000Y-82011888D01*
X109623565Y-81965532D01*
X109635296Y-81926862D01*
X109654346Y-81891223D01*
X109679983Y-81859983D01*
X109711223Y-81834346D01*
X109746862Y-81815296D01*
X109785532Y-81803565D01*
X109831888Y-81799000D01*
X110483112Y-81799000D01*
X110529468Y-81803565D01*
X110529468Y-81803565D01*
G37*
G36*
X95543468Y-81803565D02*
G01*
X95582138Y-81815296D01*
X95617777Y-81834346D01*
X95649017Y-81859983D01*
X95674654Y-81891223D01*
X95693704Y-81926862D01*
X95705435Y-81965532D01*
X95710000Y-82011888D01*
X95710000Y-83088112D01*
X95705435Y-83134468D01*
X95693704Y-83173138D01*
X95674654Y-83208777D01*
X95649017Y-83240017D01*
X95617777Y-83265654D01*
X95582138Y-83284704D01*
X95543468Y-83296435D01*
X95497112Y-83301000D01*
X94845888Y-83301000D01*
X94799532Y-83296435D01*
X94760862Y-83284704D01*
X94725223Y-83265654D01*
X94693983Y-83240017D01*
X94668346Y-83208777D01*
X94649296Y-83173138D01*
X94637565Y-83134468D01*
X94633000Y-83088112D01*
X94633000Y-82011888D01*
X94637565Y-81965532D01*
X94649296Y-81926862D01*
X94668346Y-81891223D01*
X94693983Y-81859983D01*
X94725223Y-81834346D01*
X94760862Y-81815296D01*
X94799532Y-81803565D01*
X94845888Y-81799000D01*
X95497112Y-81799000D01*
X95543468Y-81803565D01*
X95543468Y-81803565D01*
G37*
G36*
X93668468Y-81803565D02*
G01*
X93707138Y-81815296D01*
X93742777Y-81834346D01*
X93774017Y-81859983D01*
X93799654Y-81891223D01*
X93818704Y-81926862D01*
X93830435Y-81965532D01*
X93835000Y-82011888D01*
X93835000Y-83088112D01*
X93830435Y-83134468D01*
X93818704Y-83173138D01*
X93799654Y-83208777D01*
X93774017Y-83240017D01*
X93742777Y-83265654D01*
X93707138Y-83284704D01*
X93668468Y-83296435D01*
X93622112Y-83301000D01*
X92970888Y-83301000D01*
X92924532Y-83296435D01*
X92885862Y-83284704D01*
X92850223Y-83265654D01*
X92818983Y-83240017D01*
X92793346Y-83208777D01*
X92774296Y-83173138D01*
X92762565Y-83134468D01*
X92758000Y-83088112D01*
X92758000Y-82011888D01*
X92762565Y-81965532D01*
X92774296Y-81926862D01*
X92793346Y-81891223D01*
X92818983Y-81859983D01*
X92850223Y-81834346D01*
X92885862Y-81815296D01*
X92924532Y-81803565D01*
X92970888Y-81799000D01*
X93622112Y-81799000D01*
X93668468Y-81803565D01*
X93668468Y-81803565D01*
G37*
G36*
X145661000Y-83201000D02*
G01*
X144659000Y-83201000D01*
X144659000Y-81899000D01*
X145661000Y-81899000D01*
X145661000Y-83201000D01*
X145661000Y-83201000D01*
G37*
G36*
X124581000Y-83201000D02*
G01*
X123579000Y-83201000D01*
X123579000Y-81899000D01*
X124581000Y-81899000D01*
X124581000Y-83201000D01*
X124581000Y-83201000D01*
G37*
G36*
X127881000Y-83201000D02*
G01*
X126879000Y-83201000D01*
X126879000Y-81899000D01*
X127881000Y-81899000D01*
X127881000Y-83201000D01*
X127881000Y-83201000D01*
G37*
G36*
X142361000Y-83201000D02*
G01*
X141359000Y-83201000D01*
X141359000Y-81899000D01*
X142361000Y-81899000D01*
X142361000Y-83201000D01*
X142361000Y-83201000D01*
G37*
G36*
X93922468Y-66817565D02*
G01*
X93961138Y-66829296D01*
X93996777Y-66848346D01*
X94028017Y-66873983D01*
X94053654Y-66905223D01*
X94072704Y-66940862D01*
X94084435Y-66979532D01*
X94089000Y-67025888D01*
X94089000Y-68102112D01*
X94084435Y-68148468D01*
X94072704Y-68187138D01*
X94053654Y-68222777D01*
X94028017Y-68254017D01*
X93996777Y-68279654D01*
X93961138Y-68298704D01*
X93922468Y-68310435D01*
X93876112Y-68315000D01*
X93224888Y-68315000D01*
X93178532Y-68310435D01*
X93139862Y-68298704D01*
X93104223Y-68279654D01*
X93072983Y-68254017D01*
X93047346Y-68222777D01*
X93028296Y-68187138D01*
X93016565Y-68148468D01*
X93012000Y-68102112D01*
X93012000Y-67025888D01*
X93016565Y-66979532D01*
X93028296Y-66940862D01*
X93047346Y-66905223D01*
X93072983Y-66873983D01*
X93104223Y-66848346D01*
X93139862Y-66829296D01*
X93178532Y-66817565D01*
X93224888Y-66813000D01*
X93876112Y-66813000D01*
X93922468Y-66817565D01*
X93922468Y-66817565D01*
G37*
G36*
X108986968Y-66817565D02*
G01*
X109025638Y-66829296D01*
X109061277Y-66848346D01*
X109092517Y-66873983D01*
X109118154Y-66905223D01*
X109137204Y-66940862D01*
X109148935Y-66979532D01*
X109153500Y-67025888D01*
X109153500Y-68102112D01*
X109148935Y-68148468D01*
X109137204Y-68187138D01*
X109118154Y-68222777D01*
X109092517Y-68254017D01*
X109061277Y-68279654D01*
X109025638Y-68298704D01*
X108986968Y-68310435D01*
X108940612Y-68315000D01*
X108289388Y-68315000D01*
X108243032Y-68310435D01*
X108204362Y-68298704D01*
X108168723Y-68279654D01*
X108137483Y-68254017D01*
X108111846Y-68222777D01*
X108092796Y-68187138D01*
X108081065Y-68148468D01*
X108076500Y-68102112D01*
X108076500Y-67025888D01*
X108081065Y-66979532D01*
X108092796Y-66940862D01*
X108111846Y-66905223D01*
X108137483Y-66873983D01*
X108168723Y-66848346D01*
X108204362Y-66829296D01*
X108243032Y-66817565D01*
X108289388Y-66813000D01*
X108940612Y-66813000D01*
X108986968Y-66817565D01*
X108986968Y-66817565D01*
G37*
G36*
X110861968Y-66817565D02*
G01*
X110900638Y-66829296D01*
X110936277Y-66848346D01*
X110967517Y-66873983D01*
X110993154Y-66905223D01*
X111012204Y-66940862D01*
X111023935Y-66979532D01*
X111028500Y-67025888D01*
X111028500Y-68102112D01*
X111023935Y-68148468D01*
X111012204Y-68187138D01*
X110993154Y-68222777D01*
X110967517Y-68254017D01*
X110936277Y-68279654D01*
X110900638Y-68298704D01*
X110861968Y-68310435D01*
X110815612Y-68315000D01*
X110164388Y-68315000D01*
X110118032Y-68310435D01*
X110079362Y-68298704D01*
X110043723Y-68279654D01*
X110012483Y-68254017D01*
X109986846Y-68222777D01*
X109967796Y-68187138D01*
X109956065Y-68148468D01*
X109951500Y-68102112D01*
X109951500Y-67025888D01*
X109956065Y-66979532D01*
X109967796Y-66940862D01*
X109986846Y-66905223D01*
X110012483Y-66873983D01*
X110043723Y-66848346D01*
X110079362Y-66829296D01*
X110118032Y-66817565D01*
X110164388Y-66813000D01*
X110815612Y-66813000D01*
X110861968Y-66817565D01*
X110861968Y-66817565D01*
G37*
G36*
X95797468Y-66817565D02*
G01*
X95836138Y-66829296D01*
X95871777Y-66848346D01*
X95903017Y-66873983D01*
X95928654Y-66905223D01*
X95947704Y-66940862D01*
X95959435Y-66979532D01*
X95964000Y-67025888D01*
X95964000Y-68102112D01*
X95959435Y-68148468D01*
X95947704Y-68187138D01*
X95928654Y-68222777D01*
X95903017Y-68254017D01*
X95871777Y-68279654D01*
X95836138Y-68298704D01*
X95797468Y-68310435D01*
X95751112Y-68315000D01*
X95099888Y-68315000D01*
X95053532Y-68310435D01*
X95014862Y-68298704D01*
X94979223Y-68279654D01*
X94947983Y-68254017D01*
X94922346Y-68222777D01*
X94903296Y-68187138D01*
X94891565Y-68148468D01*
X94887000Y-68102112D01*
X94887000Y-67025888D01*
X94891565Y-66979532D01*
X94903296Y-66940862D01*
X94922346Y-66905223D01*
X94947983Y-66873983D01*
X94979223Y-66848346D01*
X95014862Y-66829296D01*
X95053532Y-66817565D01*
X95099888Y-66813000D01*
X95751112Y-66813000D01*
X95797468Y-66817565D01*
X95797468Y-66817565D01*
G37*
G36*
X127881000Y-67961000D02*
G01*
X126879000Y-67961000D01*
X126879000Y-66659000D01*
X127881000Y-66659000D01*
X127881000Y-67961000D01*
X127881000Y-67961000D01*
G37*
G36*
X124581000Y-67961000D02*
G01*
X123579000Y-67961000D01*
X123579000Y-66659000D01*
X124581000Y-66659000D01*
X124581000Y-67961000D01*
X124581000Y-67961000D01*
G37*
G36*
X142361000Y-67961000D02*
G01*
X141359000Y-67961000D01*
X141359000Y-66659000D01*
X142361000Y-66659000D01*
X142361000Y-67961000D01*
X142361000Y-67961000D01*
G37*
G36*
X145661000Y-67961000D02*
G01*
X144659000Y-67961000D01*
X144659000Y-66659000D01*
X145661000Y-66659000D01*
X145661000Y-67961000D01*
X145661000Y-67961000D01*
G37*
G36*
X76970000Y-64413000D02*
G01*
X68318000Y-64413000D01*
X68318000Y-62811000D01*
X76970000Y-62811000D01*
X76970000Y-64413000D01*
X76970000Y-64413000D01*
G37*
G36*
X67745000Y-62238000D02*
G01*
X66143000Y-62238000D01*
X66143000Y-53586000D01*
X67745000Y-53586000D01*
X67745000Y-62238000D01*
X67745000Y-62238000D01*
G37*
G36*
X79145000Y-62238000D02*
G01*
X77543000Y-62238000D01*
X77543000Y-53586000D01*
X79145000Y-53586000D01*
X79145000Y-62238000D01*
X79145000Y-62238000D01*
G37*
G36*
X93922468Y-53355565D02*
G01*
X93961138Y-53367296D01*
X93996777Y-53386346D01*
X94028017Y-53411983D01*
X94053654Y-53443223D01*
X94072704Y-53478862D01*
X94084435Y-53517532D01*
X94089000Y-53563888D01*
X94089000Y-54640112D01*
X94084435Y-54686468D01*
X94072704Y-54725138D01*
X94053654Y-54760777D01*
X94028017Y-54792017D01*
X93996777Y-54817654D01*
X93961138Y-54836704D01*
X93922468Y-54848435D01*
X93876112Y-54853000D01*
X93224888Y-54853000D01*
X93178532Y-54848435D01*
X93139862Y-54836704D01*
X93104223Y-54817654D01*
X93072983Y-54792017D01*
X93047346Y-54760777D01*
X93028296Y-54725138D01*
X93016565Y-54686468D01*
X93012000Y-54640112D01*
X93012000Y-53563888D01*
X93016565Y-53517532D01*
X93028296Y-53478862D01*
X93047346Y-53443223D01*
X93072983Y-53411983D01*
X93104223Y-53386346D01*
X93139862Y-53367296D01*
X93178532Y-53355565D01*
X93224888Y-53351000D01*
X93876112Y-53351000D01*
X93922468Y-53355565D01*
X93922468Y-53355565D01*
G37*
G36*
X95797468Y-53355565D02*
G01*
X95836138Y-53367296D01*
X95871777Y-53386346D01*
X95903017Y-53411983D01*
X95928654Y-53443223D01*
X95947704Y-53478862D01*
X95959435Y-53517532D01*
X95964000Y-53563888D01*
X95964000Y-54640112D01*
X95959435Y-54686468D01*
X95947704Y-54725138D01*
X95928654Y-54760777D01*
X95903017Y-54792017D01*
X95871777Y-54817654D01*
X95836138Y-54836704D01*
X95797468Y-54848435D01*
X95751112Y-54853000D01*
X95099888Y-54853000D01*
X95053532Y-54848435D01*
X95014862Y-54836704D01*
X94979223Y-54817654D01*
X94947983Y-54792017D01*
X94922346Y-54760777D01*
X94903296Y-54725138D01*
X94891565Y-54686468D01*
X94887000Y-54640112D01*
X94887000Y-53563888D01*
X94891565Y-53517532D01*
X94903296Y-53478862D01*
X94922346Y-53443223D01*
X94947983Y-53411983D01*
X94979223Y-53386346D01*
X95014862Y-53367296D01*
X95053532Y-53355565D01*
X95099888Y-53351000D01*
X95751112Y-53351000D01*
X95797468Y-53355565D01*
X95797468Y-53355565D01*
G37*
G36*
X111037468Y-53101565D02*
G01*
X111076138Y-53113296D01*
X111111777Y-53132346D01*
X111143017Y-53157983D01*
X111168654Y-53189223D01*
X111187704Y-53224862D01*
X111199435Y-53263532D01*
X111204000Y-53309888D01*
X111204000Y-54386112D01*
X111199435Y-54432468D01*
X111187704Y-54471138D01*
X111168654Y-54506777D01*
X111143017Y-54538017D01*
X111111777Y-54563654D01*
X111076138Y-54582704D01*
X111037468Y-54594435D01*
X110991112Y-54599000D01*
X110339888Y-54599000D01*
X110293532Y-54594435D01*
X110254862Y-54582704D01*
X110219223Y-54563654D01*
X110187983Y-54538017D01*
X110162346Y-54506777D01*
X110143296Y-54471138D01*
X110131565Y-54432468D01*
X110127000Y-54386112D01*
X110127000Y-53309888D01*
X110131565Y-53263532D01*
X110143296Y-53224862D01*
X110162346Y-53189223D01*
X110187983Y-53157983D01*
X110219223Y-53132346D01*
X110254862Y-53113296D01*
X110293532Y-53101565D01*
X110339888Y-53097000D01*
X110991112Y-53097000D01*
X111037468Y-53101565D01*
X111037468Y-53101565D01*
G37*
G36*
X109162468Y-53101565D02*
G01*
X109201138Y-53113296D01*
X109236777Y-53132346D01*
X109268017Y-53157983D01*
X109293654Y-53189223D01*
X109312704Y-53224862D01*
X109324435Y-53263532D01*
X109329000Y-53309888D01*
X109329000Y-54386112D01*
X109324435Y-54432468D01*
X109312704Y-54471138D01*
X109293654Y-54506777D01*
X109268017Y-54538017D01*
X109236777Y-54563654D01*
X109201138Y-54582704D01*
X109162468Y-54594435D01*
X109116112Y-54599000D01*
X108464888Y-54599000D01*
X108418532Y-54594435D01*
X108379862Y-54582704D01*
X108344223Y-54563654D01*
X108312983Y-54538017D01*
X108287346Y-54506777D01*
X108268296Y-54471138D01*
X108256565Y-54432468D01*
X108252000Y-54386112D01*
X108252000Y-53309888D01*
X108256565Y-53263532D01*
X108268296Y-53224862D01*
X108287346Y-53189223D01*
X108312983Y-53157983D01*
X108344223Y-53132346D01*
X108379862Y-53113296D01*
X108418532Y-53101565D01*
X108464888Y-53097000D01*
X109116112Y-53097000D01*
X109162468Y-53101565D01*
X109162468Y-53101565D01*
G37*
G36*
X142361000Y-53991000D02*
G01*
X141359000Y-53991000D01*
X141359000Y-52689000D01*
X142361000Y-52689000D01*
X142361000Y-53991000D01*
X142361000Y-53991000D01*
G37*
G36*
X145661000Y-53991000D02*
G01*
X144659000Y-53991000D01*
X144659000Y-52689000D01*
X145661000Y-52689000D01*
X145661000Y-53991000D01*
X145661000Y-53991000D01*
G37*
G36*
X124581000Y-53991000D02*
G01*
X123579000Y-53991000D01*
X123579000Y-52689000D01*
X124581000Y-52689000D01*
X124581000Y-53991000D01*
X124581000Y-53991000D01*
G37*
G36*
X127881000Y-53991000D02*
G01*
X126879000Y-53991000D01*
X126879000Y-52689000D01*
X127881000Y-52689000D01*
X127881000Y-53991000D01*
X127881000Y-53991000D01*
G37*
G36*
X76970000Y-53013000D02*
G01*
X68318000Y-53013000D01*
X68318000Y-51411000D01*
X76970000Y-51411000D01*
X76970000Y-53013000D01*
X76970000Y-53013000D01*
G37*
M02*
